<?xml version="1.0" standalone="no"?>
<!DOCTYPE svg PUBLIC "-//W3C//DTD SVG 20010904//EN"
 "http://www.w3.org/TR/2001/REC-SVG-20010904/DTD/svg10.dtd">
<svg version="1.0" xmlns="http://www.w3.org/2000/svg"
 width="1280.000000pt" height="1135.000000pt" viewBox="0 0 1280.000000 1135.000000"
 preserveAspectRatio="xMidYMid meet">
<metadata>
Created by potrace 1.15, written by Peter Selinger 2001-2017
</metadata>
<g transform="translate(0.000000,1135.000000) scale(0.100000,-0.100000)"
fill="#ffc107" stroke="none">
<path d="M5215 11344 c-455 -33 -707 -71 -1033 -153 -474 -120 -877 -296
-1272 -555 -750 -493 -1282 -1231 -1494 -2073 -99 -395 -100 -641 -4 -881 l21
-53 -48 -72 c-107 -160 -200 -281 -596 -772 -435 -539 -616 -790 -713 -989
-147 -300 -89 -427 280 -615 87 -44 116 -53 205 -66 160 -24 207 -40 256 -90
40 -39 43 -46 43 -95 0 -33 -13 -94 -35 -161 -19 -60 -35 -119 -35 -131 0 -35
-42 -116 -100 -193 -66 -88 -89 -138 -90 -192 0 -89 41 -149 171 -249 109 -82
117 -98 77 -150 -12 -16 -50 -59 -85 -96 -34 -38 -72 -87 -84 -110 -34 -67
-24 -92 89 -223 158 -184 210 -291 199 -404 -3 -31 -44 -171 -90 -311 -98
-292 -117 -374 -117 -499 0 -107 24 -192 76 -271 142 -215 305 -340 560 -427
l109 -37 845 -8 845 -9 43 -47 c132 -146 250 -535 356 -1173 46 -279 48 -277
125 113 238 1220 379 2373 343 2800 -29 339 -188 672 -620 1293 -312 448 -399
595 -491 830 -215 544 -348 1098 -391 1628 -24 296 -8 754 35 1027 105 661
363 1252 768 1759 132 165 397 429 567 565 146 117 386 280 544 371 537 307
1194 520 1898 617 92 12 166 24 164 26 -6 5 -292 41 -461 57 -159 15 -742 28
-860 19z"/>
<path d="M6975 11300 c-149 -8 -387 -28 -392 -33 -1 -2 75 -18 170 -36 1109
-215 2012 -706 2622 -1426 475 -562 749 -1202 852 -1990 26 -199 26 -804 0
-1015 -51 -414 -136 -791 -269 -1185 -137 -408 -221 -577 -458 -921 -407 -592
-478 -704 -590 -936 -121 -250 -165 -405 -176 -619 -24 -459 147 -1773 376
-2895 54 -261 59 -269 82 -129 64 393 128 686 194 890 44 136 130 316 179 373
l37 42 406 1 c224 1 607 4 852 8 l445 7 85 28 c272 89 498 272 607 494 33 66
37 82 41 175 6 143 -14 236 -114 535 -47 140 -88 278 -91 307 -4 38 0 72 15
121 30 99 72 160 224 333 35 39 60 78 64 98 9 48 -24 106 -116 208 -80 87 -99
121 -83 148 4 8 51 48 103 88 111 87 151 144 158 222 5 68 -11 107 -92 216
-67 90 -96 147 -96 187 0 13 -16 71 -35 128 -46 138 -47 201 -5 249 42 48 108
73 250 96 111 18 134 25 234 77 196 101 266 154 310 233 57 105 42 212 -55
401 -104 204 -273 437 -709 975 -349 431 -630 803 -630 832 0 5 12 38 26 74
61 150 80 363 49 559 -115 721 -451 1375 -975 1900 -670 671 -1581 1070 -2665
1165 -210 18 -633 26 -830 15z"/>
<path d="M5855 10453 c-114 -8 -380 -45 -515 -73 -1530 -310 -2304 -1333
-2255 -2985 30 -1045 243 -1678 739 -2194 34 -34 167 -156 296 -269 129 -113
279 -250 333 -305 330 -333 479 -700 504 -1242 l6 -145 669 0 668 0 0 3604 c0
3277 -1 3604 -16 3610 -16 6 -336 5 -429 -1z"/>
<path d="M6765 10379 c-200 -101 -240 -163 -239 -374 0 -100 3 -117 32 -187
18 -45 29 -85 25 -95 -4 -10 -37 -68 -74 -130 -37 -62 -72 -135 -79 -163 -23
-97 5 -175 99 -271 l57 -59 -34 -32 c-43 -42 -58 -71 -66 -130 -7 -45 -5 -49
28 -83 20 -20 36 -41 36 -48 0 -7 -14 -66 -32 -132 -30 -114 -31 -129 -32
-315 0 -213 8 -258 64 -370 27 -53 90 -122 121 -132 11 -4 4 -26 -28 -94 -144
-305 -151 -342 -155 -759 l-3 -330 26 -55 c14 -30 42 -75 62 -98 21 -24 37
-46 37 -48 0 -2 -16 -25 -36 -50 -74 -97 -108 -200 -102 -303 3 -55 9 -76 36
-117 38 -61 39 -70 8 -160 -12 -38 -36 -121 -52 -184 -27 -109 -29 -126 -29
-335 l0 -220 44 -93 c56 -117 56 -142 2 -226 -53 -80 -61 -110 -61 -218 0 -64
8 -117 31 -205 37 -143 69 -296 69 -330 0 -13 -10 -37 -22 -53 -20 -27 -22
-42 -22 -168 -1 -129 1 -140 26 -192 15 -30 46 -74 70 -97 57 -55 153 -106
187 -98 21 4 34 -2 66 -35 57 -58 118 -75 270 -74 143 0 214 18 375 96 86 42
116 63 165 115 33 35 97 102 142 148 81 83 83 85 130 85 26 0 86 -10 133 -21
97 -25 254 -29 335 -10 70 17 243 101 288 141 57 50 133 215 158 343 10 55 25
110 33 121 9 14 41 30 90 45 89 27 175 80 229 140 46 51 155 218 197 301 36
70 60 165 60 235 0 54 -31 232 -49 278 -15 40 -14 80 6 128 14 35 15 52 5 112
-8 51 -8 76 0 91 6 12 62 70 124 129 91 87 120 122 148 177 88 176 67 362 -64
558 -41 62 -48 77 -36 84 47 26 102 78 120 113 50 96 6 316 -94 469 -26 39
-60 83 -77 97 l-31 26 -4 134 c-4 126 -6 138 -36 204 -24 51 -50 86 -94 127
l-61 57 22 86 c32 129 44 273 32 391 -21 207 -91 334 -260 475 -136 113 -153
149 -171 343 -18 200 -42 278 -104 339 -40 41 -114 67 -186 67 -89 0 -106 36
-75 158 33 126 -24 281 -149 407 -138 140 -292 183 -481 135 -42 -11 -100 -34
-128 -51 -28 -17 -65 -33 -84 -36 -29 -5 -39 0 -83 41 -77 72 -252 146 -345
146 -18 0 -49 13 -79 35 -52 37 -103 50 -231 59 l-80 6 -120 -61z m351 -34
c53 -33 112 -112 137 -184 9 -25 23 -84 31 -131 12 -64 20 -88 36 -99 47 -32
7 -127 -64 -151 -18 -5 -65 -9 -106 -8 -51 2 -74 -1 -77 -9 -7 -20 45 -34 153
-40 83 -5 106 -3 138 12 47 23 77 79 79 149 1 67 -15 106 -57 133 -29 19 -35
30 -44 83 -6 34 -23 87 -37 117 -14 31 -23 58 -21 61 8 7 146 -38 200 -65 65
-33 143 -107 171 -163 34 -66 38 -121 21 -244 -22 -149 -21 -191 4 -216 46
-46 57 -20 62 153 3 95 9 152 17 160 7 7 38 12 69 13 73 1 104 11 100 32 -3
13 -18 18 -73 22 -39 3 -76 9 -83 13 -12 8 -56 87 -50 91 64 46 182 99 258
116 92 20 203 5 272 -38 75 -47 182 -180 222 -276 22 -54 20 -160 -5 -241 -11
-36 -23 -65 -27 -63 -4 2 -55 27 -114 56 -127 62 -211 87 -240 71 -29 -15 -17
-32 33 -48 67 -21 158 -63 173 -80 8 -9 22 -41 30 -72 21 -72 43 -93 80 -79
15 5 31 10 36 10 14 0 38 -95 46 -176 8 -86 16 -104 41 -88 27 17 23 187 -6
267 l-20 57 37 0 c45 0 125 -21 168 -43 47 -24 99 -90 118 -150 12 -34 20 -98
23 -188 l6 -136 -41 -32 c-24 -20 -46 -50 -57 -77 -30 -79 -4 -93 95 -48 l58
26 38 -20 c49 -25 222 -202 257 -263 130 -224 95 -634 -72 -821 -44 -49 -49
-63 -27 -71 21 -8 67 20 106 65 32 36 38 40 57 30 43 -24 102 -103 124 -169
29 -88 24 -224 -11 -297 -22 -46 -81 -116 -99 -116 -4 0 -21 42 -38 93 -54
163 -145 287 -213 290 -18 1 -35 -3 -37 -10 -2 -7 23 -41 56 -77 103 -111 157
-250 149 -387 -6 -107 -56 -211 -126 -262 -65 -48 -94 -82 -90 -104 4 -24 48
-29 87 -9 61 32 175 200 186 273 11 81 15 88 58 111 24 12 62 47 86 78 l43 55
31 -19 c94 -55 186 -284 157 -391 -18 -68 -112 -156 -224 -212 l-90 -44 -115
0 c-113 0 -116 -1 -128 -25 -7 -14 -13 -37 -13 -52 0 -29 -109 -198 -167 -259
-41 -43 -99 -71 -209 -99 -82 -22 -144 -51 -144 -70 0 -32 162 -24 243 13 75
34 133 90 237 227 48 63 108 134 133 158 41 37 52 42 94 42 27 0 92 14 147 32
l99 32 28 -33 c41 -50 85 -138 103 -207 61 -235 -53 -482 -262 -570 -72 -31
-80 -46 -63 -124 26 -123 4 -210 -70 -273 -47 -41 -97 -57 -177 -57 -70 0 -92
-6 -92 -26 0 -40 142 -42 275 -5 52 15 72 17 77 8 22 -34 33 -103 33 -207 0
-99 -4 -125 -27 -189 -36 -99 -110 -221 -180 -297 -100 -107 -239 -164 -404
-164 -171 0 -278 42 -413 165 -98 89 -120 103 -131 85 -21 -35 40 -107 178
-213 34 -26 67 -58 72 -71 21 -56 -38 -152 -115 -187 -29 -13 -65 -19 -126
-19 -99 0 -149 -14 -149 -40 0 -36 28 -45 139 -45 123 0 184 15 235 57 48 39
75 94 83 168 5 51 9 60 22 55 9 -4 68 -11 131 -17 63 -7 116 -12 117 -13 9 -4
-63 -248 -88 -297 -89 -177 -256 -260 -519 -260 -150 0 -245 22 -365 82 -87
44 -148 91 -127 98 47 15 102 55 133 96 37 49 47 74 74 185 20 82 37 117 56
111 8 -2 44 -6 80 -8 63 -3 69 -2 103 28 35 31 48 70 24 70 -7 0 -30 -5 -51
-11 -75 -20 -199 19 -280 89 -50 44 -93 54 -104 26 -3 -9 17 -60 47 -119 47
-90 53 -111 53 -163 0 -90 -29 -142 -116 -203 -38 -27 -78 -49 -87 -49 -20 0
-90 73 -90 93 0 6 7 37 15 67 17 63 19 148 5 170 -18 27 -47 -23 -60 -102 -15
-98 -25 -128 -61 -181 -35 -53 -51 -65 -179 -132 -118 -62 -129 -85 -42 -85
74 0 166 43 233 110 l45 45 41 -30 c52 -37 240 -159 271 -174 30 -16 28 -21
-16 -53 -20 -14 -88 -74 -151 -132 -126 -117 -180 -149 -326 -192 -160 -46
-319 -32 -415 36 -17 12 -44 48 -60 81 -17 32 -34 59 -39 59 -11 0 -29 -46
-33 -83 l-3 -29 -69 59 c-134 113 -157 201 -116 432 l23 128 88 -57 c100 -66
184 -99 202 -81 20 20 -4 43 -116 111 -124 76 -203 149 -219 203 -6 20 -8 40
-5 43 3 4 50 -6 104 -22 91 -27 110 -29 258 -28 140 0 167 3 215 22 132 52
235 174 264 313 6 26 7 27 70 22 83 -7 108 0 155 42 61 55 84 120 89 247 l4
107 37 -23 c135 -86 220 -108 403 -107 223 1 401 39 500 107 63 44 122 126
188 259 111 227 151 398 117 506 l-14 46 57 11 c88 19 194 93 245 173 13 20
30 62 39 94 8 31 17 60 21 63 3 4 44 10 91 13 95 8 129 24 139 67 8 39 -10 82
-34 82 -10 0 -38 -9 -62 -20 -67 -30 -101 -26 -138 15 -17 20 -31 40 -31 45 0
20 -53 70 -75 70 -47 0 -44 -101 6 -183 17 -27 29 -61 29 -80 -1 -70 -73 -175
-154 -222 -23 -13 -78 -36 -124 -50 -46 -15 -86 -33 -89 -41 -3 -8 3 -36 13
-62 26 -66 24 -185 -4 -287 -32 -114 -130 -310 -187 -373 -88 -98 -266 -160
-486 -169 -213 -9 -346 35 -492 163 -114 100 -124 107 -136 100 -20 -13 -11
-51 23 -99 80 -112 66 -317 -24 -371 -21 -12 -62 -20 -125 -25 -114 -8 -125
-16 -137 -103 -16 -117 -96 -213 -214 -257 -80 -30 -215 -44 -300 -31 -171 26
-294 138 -294 265 0 33 28 97 58 134 l20 25 16 -39 c21 -49 44 -75 66 -75 41
0 31 52 -51 257 -59 148 -86 249 -100 370 -19 175 19 388 106 587 40 90 58
118 107 167 33 32 58 64 56 71 -5 15 -50 22 -84 14 -13 -4 -36 -24 -50 -46
-15 -22 -30 -40 -34 -40 -10 0 -40 103 -40 142 0 52 26 130 60 176 50 70 56
70 178 9 59 -30 139 -64 177 -77 39 -13 91 -33 117 -46 76 -38 108 -8 44 41
-19 15 -73 41 -119 60 -251 98 -382 207 -439 363 -18 49 -22 86 -26 280 -5
251 6 379 42 486 45 134 118 291 177 383 67 104 84 153 52 153 -11 0 -37 -16
-58 -37 -36 -35 -38 -36 -64 -21 -38 23 -86 90 -110 153 -51 137 -48 396 8
562 35 105 41 194 16 263 -22 63 -19 86 20 129 71 78 262 150 420 158 97 5
104 4 227 -36 182 -60 274 -66 218 -16 -25 22 -268 91 -377 106 -108 16 -183
3 -313 -53 -120 -52 -149 -53 -195 -8 -51 49 -95 142 -95 199 0 55 37 138 108
243 64 94 129 155 220 208 72 41 115 88 110 120 -5 27 -43 22 -83 -13 -103
-86 -218 -168 -226 -160 -22 22 -41 140 -36 223 8 135 44 208 139 279 9 7 59
28 110 47 120 44 191 44 264 -1z"/>
<path d="M7689 9473 c5 -10 32 -44 60 -76 63 -71 75 -95 91 -171 26 -128 -9
-195 -132 -255 -123 -59 -127 -59 -191 -6 -31 25 -63 45 -71 45 -30 0 -17 -47
29 -108 25 -34 52 -83 60 -110 27 -89 85 -138 85 -69 0 31 -10 79 -24 123 -6
20 -2 22 66 28 87 9 141 31 195 80 39 35 43 36 120 36 98 0 139 13 158 51 16
30 20 69 8 69 -5 0 -28 -6 -53 -14 -25 -7 -73 -17 -106 -21 l-62 -7 5 64 c11
140 -39 254 -141 325 -54 37 -114 46 -97 16z"/>
<path d="M6964 9019 c-3 -6 8 -37 25 -70 17 -32 33 -76 37 -96 l6 -38 -59 3
c-70 4 -113 -10 -113 -37 0 -17 11 -19 158 -23 126 -4 168 -9 214 -26 124 -44
192 -118 297 -320 49 -94 83 -144 151 -221 98 -111 120 -158 120 -260 0 -59
-25 -126 -74 -198 -34 -49 -33 -67 9 -147 19 -37 35 -79 35 -92 0 -33 -26 -93
-53 -122 -47 -50 -161 -92 -254 -92 -45 0 -55 4 -70 26 -61 89 -118 134 -168
134 -41 0 -31 -27 38 -99 72 -77 87 -115 87 -222 l0 -74 -62 -12 c-34 -7 -73
-20 -87 -31 -26 -19 -86 -91 -92 -111 -3 -7 -27 -3 -67 9 -133 42 -250 36
-318 -15 -36 -28 -74 -101 -74 -145 0 -52 34 -39 118 45 105 105 155 111 272
36 35 -23 69 -41 76 -41 7 0 28 19 46 41 106 132 130 149 205 149 100 0 236
-97 293 -210 71 -138 66 -295 -14 -444 -31 -59 -34 -72 -23 -84 18 -17 59 -7
85 21 25 28 52 139 52 214 0 32 4 63 8 70 23 36 168 52 265 29 74 -17 126 -41
200 -92 67 -46 83 -38 124 61 33 80 76 135 125 161 15 8 65 21 110 30 104 20
119 27 88 44 -32 17 -151 7 -217 -18 -79 -30 -128 -74 -164 -148 -17 -35 -33
-64 -34 -64 -1 0 -51 19 -111 42 -100 39 -117 42 -204 43 -52 0 -113 -4 -136
-9 l-41 -8 -7 50 c-3 28 -22 82 -42 121 -57 114 -150 196 -264 232 -30 10 -54
22 -53 28 2 6 6 48 9 95 l7 84 101 4 c118 4 189 31 253 95 58 58 78 106 78
188 -1 75 -13 109 -59 158 l-27 29 37 49 c66 91 97 218 66 276 -11 19 -8 20
78 26 182 13 321 58 350 112 15 28 6 87 -15 105 -13 11 -25 4 -75 -39 -77 -67
-137 -93 -226 -99 -62 -4 -80 -1 -128 21 -108 50 -187 143 -307 362 -100 184
-208 270 -374 298 -44 7 -74 17 -67 21 33 20 -13 116 -84 174 -42 35 -49 37
-60 21z"/>
<path d="M8276 8978 c-20 -29 -20 -47 4 -138 28 -108 26 -168 -9 -248 -56
-129 -54 -142 41 -192 87 -46 140 -91 209 -177 75 -94 123 -181 164 -296 98
-276 63 -511 -109 -719 -62 -75 -144 -137 -264 -198 -65 -34 -87 -50 -87 -65
0 -68 216 24 321 136 23 24 58 62 77 84 l36 40 63 -32 c48 -25 71 -45 98 -85
53 -78 90 -118 111 -118 48 0 -3 146 -69 199 -34 26 -103 62 -143 74 -14 5
-11 15 18 74 51 104 66 192 60 360 l-5 141 64 56 c74 66 133 95 191 96 53 0
93 15 93 34 0 36 -157 33 -230 -4 -23 -12 -64 -42 -90 -66 -51 -48 -60 -52
-60 -28 0 42 -66 177 -116 236 -29 34 -55 72 -58 84 -4 15 6 39 30 76 47 70
84 143 84 167 0 25 19 31 95 31 53 0 74 -6 130 -36 37 -19 77 -34 89 -32 28 4
34 48 9 70 -26 23 -155 58 -244 65 l-77 6 -4 91 c-3 85 -6 95 -37 139 -35 48
-85 88 -133 106 -45 17 -43 -5 5 -56 53 -58 71 -91 86 -161 24 -112 4 -220
-60 -332 l-32 -55 -64 70 c-35 39 -76 90 -90 114 -26 43 -26 44 -13 123 13 79
9 152 -11 258 -10 50 -43 130 -54 130 -2 0 -11 -10 -19 -22z"/>
<path d="M6973 8433 c-23 -9 -14 -23 35 -53 43 -28 172 -161 172 -178 0 -4
-18 -33 -40 -66 -46 -68 -59 -107 -67 -196 -6 -74 9 -159 37 -216 11 -21 20
-39 20 -40 0 -1 -39 -3 -88 -6 -97 -6 -139 -22 -213 -83 -59 -50 -87 -94 -68
-106 24 -15 36 -10 96 41 32 28 82 62 111 77 l53 26 137 -11 c132 -12 163 -8
148 17 -4 6 -24 14 -44 17 -21 3 -44 11 -53 17 -27 20 -62 188 -56 265 6 80
31 159 62 198 19 24 31 29 93 34 94 9 122 28 122 81 l0 40 -37 -8 c-88 -19
-158 4 -250 79 -77 64 -132 87 -170 71z"/>
<path d="M7350 6201 c0 -5 9 -38 20 -73 11 -34 20 -75 20 -89 0 -38 -20 -90
-44 -117 -20 -22 -26 -23 -101 -17 -93 8 -124 -1 -175 -50 -24 -23 -54 -38
-98 -50 -34 -8 -74 -21 -87 -27 -56 -25 -10 -56 65 -44 22 3 87 26 145 51 57
25 110 45 116 45 6 0 38 -12 70 -26 58 -26 63 -27 202 -21 167 7 237 23 328
77 97 58 129 94 129 147 l0 44 -27 -15 c-16 -8 -43 -30 -61 -50 -18 -20 -49
-47 -70 -61 -67 -44 -290 -97 -340 -81 -21 7 -21 7 4 53 20 39 24 60 24 135 0
101 -14 139 -60 163 -33 17 -60 20 -60 6z"/>
<path d="M8327 6093 c-14 -14 -6 -67 28 -171 41 -130 50 -177 40 -237 -21
-140 -205 -197 -371 -115 -34 16 -64 30 -67 30 -4 0 -29 -20 -57 -45 -160
-142 -444 -190 -674 -113 -95 31 -154 65 -222 129 -70 65 -106 75 -112 31 -5
-31 43 -75 149 -139 l84 -50 8 -54 c14 -90 -4 -124 -92 -179 -87 -54 -101 -71
-81 -95 12 -14 25 -16 67 -12 128 13 176 74 171 215 -2 45 -1 82 1 82 3 0 43
-7 90 -16 118 -22 335 -14 441 16 85 24 210 83 235 110 16 18 18 18 51 -5 92
-62 300 -39 388 43 38 36 66 98 66 150 0 48 -44 273 -66 334 -15 42 -51 98
-63 98 -4 0 -11 -3 -14 -7z"/>
<path d="M4960 2850 l0 -240 1375 0 1375 0 -2 238 -3 237 -1372 3 -1373 2 0
-240z"/>
<path d="M5070 2445 c0 -3 0 -110 -1 -237 l0 -233 1231 -3 1230 -2 -2 237 -3
238 -1227 3 c-676 1 -1228 0 -1228 -3z"/>
<path d="M5220 1550 l0 -240 1070 0 1070 0 0 240 0 240 -1070 0 -1070 0 0
-240z"/>
</g>
</svg>
