<?xml version="1.0" standalone="no"?>
<!DOCTYPE svg PUBLIC "-//W3C//DTD SVG 20010904//EN"
 "http://www.w3.org/TR/2001/REC-SVG-20010904/DTD/svg10.dtd">
<svg version="1.0" xmlns="http://www.w3.org/2000/svg"
 width="1160.000000pt" height="1280.000000pt" viewBox="0 0 1160.000000 1280.000000"
 preserveAspectRatio="xMidYMid meet">
<metadata>
Created by potrace 1.15, written by Peter Selinger 2001-2017
</metadata>
<g transform="translate(0.000000,1280.000000) scale(0.100000,-0.100000)"
fill="#ffc107" stroke="none">
<path d="M5920 12794 c-497 -33 -782 -74 -1150 -165 -1209 -298 -2184 -996
-2754 -1972 -87 -147 -228 -445 -286 -600 -103 -278 -185 -615 -211 -870 -19
-177 9 -370 80 -546 l22 -54 -54 -81 c-78 -117 -271 -373 -438 -581 -512 -636
-605 -754 -698 -878 -158 -210 -266 -378 -337 -522 -75 -152 -99 -235 -91
-317 13 -150 108 -241 412 -397 91 -46 112 -53 231 -71 202 -31 275 -65 315
-147 26 -53 22 -95 -22 -226 -16 -48 -35 -119 -43 -157 -18 -85 -32 -113 -112
-221 -79 -107 -104 -160 -104 -224 0 -96 58 -182 186 -275 150 -109 150 -121
11 -268 -91 -97 -127 -155 -127 -205 0 -51 5 -58 111 -179 173 -198 231 -307
232 -438 0 -68 -8 -99 -90 -345 -130 -385 -138 -419 -138 -595 0 -128 3 -152
23 -202 86 -213 332 -449 571 -549 188 -78 206 -81 541 -90 168 -4 599 -8 959
-8 l653 -1 35 -38 c107 -115 208 -363 293 -717 59 -246 82 -365 156 -822 l5
-33 3124 0 c1719 0 3125 1 3125 3 0 2 -20 104 -45 228 -193 956 -335 1897
-407 2694 -17 194 -17 711 0 790 41 179 143 437 255 640 115 210 213 360 543
836 244 351 347 532 448 786 421 1065 555 2155 380 3113 -289 1582 -1378 2786
-3030 3350 -516 176 -1033 280 -1674 336 -163 14 -776 26 -900 18z m995 -644
c896 -76 1705 -378 2376 -886 404 -306 760 -702 1001 -1114 434 -741 577
-1584 407 -2404 -58 -281 -146 -530 -284 -811 -193 -394 -417 -699 -751 -1025
-706 -689 -1654 -1110 -2714 -1205 -310 -28 -786 -15 -1090 30 -1134 167
-2120 714 -2779 1540 -369 462 -614 992 -715 1547 -41 227 -51 340 -51 603 0
263 10 375 51 605 152 835 635 1613 1357 2184 584 462 1330 781 2089 895 117
17 270 35 393 44 100 8 602 6 710 -3z"/>
<path d="M6284 12122 l-42 -3 4 -565 c2 -310 6 -569 9 -575 4 -5 31 -27 61
-50 30 -22 61 -50 70 -64 28 -43 -5 -95 -61 -95 -58 0 -86 69 -45 110 20 20
20 20 -25 61 l-45 42 0 568 c0 554 0 569 -19 569 -53 0 -51 9 -51 -299 l1
-286 24 -40 25 -40 0 -336 0 -336 83 -77 c45 -42 90 -84 100 -92 26 -22 19
-72 -14 -96 -34 -25 -75 -15 -94 23 -16 29 -12 53 13 82 15 16 11 23 -51 85
l-67 68 0 334 0 335 -25 40 -24 40 -1 287 c0 187 -4 289 -10 293 -6 4 -29 4
-50 0 l-40 -7 0 -317 0 -318 23 4 c13 3 33 -4 50 -17 36 -29 36 -71 1 -99 -33
-26 -55 -26 -84 -3 -21 17 -22 20 -23 382 l-2 365 -30 -3 c-70 -6 -305 -46
-305 -52 0 -3 25 -30 55 -60 l55 -54 0 -200 0 -200 195 -196 195 -196 0 -192
0 -192 30 -48 c28 -46 30 -56 30 -149 l0 -99 45 -44 c36 -36 52 -44 75 -42 66
7 94 -80 38 -121 -23 -17 -30 -18 -57 -7 -26 10 -48 42 -44 61 1 3 -27 34 -63
70 l-64 63 0 106 c0 93 -3 110 -25 149 -24 42 -25 49 -25 232 l0 188 -195 198
-194 198 -1 195 0 196 -67 66 -68 67 -43 -11 -43 -11 86 -87 85 -87 0 -189 0
-189 190 -190 190 -190 0 -191 0 -191 45 -48 c56 -61 63 -80 38 -114 -53 -70
-153 -7 -112 71 9 16 7 24 -10 42 -20 21 -21 33 -21 212 l0 189 -195 195 -195
195 0 190 0 190 -88 88 -88 88 -63 -17 -62 -18 140 -140 141 -141 0 -130 0
-130 85 -85 c77 -76 85 -88 85 -122 0 -34 3 -38 25 -38 63 0 86 -84 33 -123
-23 -17 -31 -18 -57 -8 -33 14 -52 55 -40 86 4 11 8 38 8 60 1 38 -5 46 -84
125 l-85 85 0 130 0 130 -147 147 c-115 115 -151 145 -163 138 -12 -8 15 -39
133 -157 l147 -148 0 -120 1 -120 79 -80 80 -80 0 -102 0 -101 34 -21 c24 -15
50 -21 93 -21 57 0 60 -1 106 -48 l47 -48 0 -330 0 -330 33 -32 33 -32 499 0
499 0 42 41 c36 35 42 46 37 73 -10 63 71 102 117 56 45 -45 10 -110 -58 -110
-32 0 -45 -7 -82 -45 l-44 -45 -516 0 -516 0 -37 38 -37 38 0 330 0 330 -43
42 c-39 39 -47 42 -96 42 -38 0 -64 7 -97 26 l-44 26 0 107 0 106 -80 80 -80
80 0 120 0 120 -147 147 c-81 82 -154 148 -163 148 -8 0 49 -64 128 -143 l142
-142 0 -140 0 -140 80 -80 80 -80 0 -80 0 -81 82 -74 c68 -62 86 -74 111 -71
34 3 77 -32 77 -64 0 -37 -28 -65 -66 -65 -46 0 -78 32 -70 70 5 25 -4 38 -79
111 l-85 83 0 81 0 80 -80 80 -80 80 0 140 0 141 -145 144 c-113 112 -148 141
-157 132 -10 -10 20 -45 135 -160 l147 -147 0 -130 0 -130 80 -80 80 -80 0
-85 0 -86 70 -69 70 -69 0 -221 0 -221 33 -32 c28 -27 38 -31 64 -26 26 5 37
1 57 -19 33 -33 33 -61 1 -92 -31 -32 -59 -32 -92 1 -19 19 -24 32 -20 53 5
23 -1 35 -39 72 l-44 43 0 221 0 221 -65 64 -65 64 0 81 0 80 -80 80 -80 80 0
135 0 135 -149 149 c-142 141 -150 148 -180 141 -17 -3 -31 -10 -31 -13 0 -4
65 -72 145 -152 l145 -145 0 -145 0 -145 85 -85 85 -85 0 -129 0 -129 23 21
c44 42 117 15 117 -43 0 -60 -81 -87 -118 -40 -11 14 -27 25 -36 25 -14 0 -16
18 -16 138 l0 137 -85 88 -85 88 0 146 0 146 -147 149 c-131 131 -173 166
-173 140 0 -4 68 -75 150 -157 l150 -150 0 -181 0 -181 28 -6 c71 -14 54 -127
-20 -127 -55 0 -86 62 -53 106 11 15 14 56 15 194 l0 175 -156 156 c-117 117
-161 155 -175 152 -11 -3 -19 -6 -19 -7 0 -1 59 -60 130 -133 l130 -131 0
-239 0 -239 38 -37 38 -37 112 0 112 0 0 -147 0 -147 36 -38 c31 -31 42 -36
66 -31 22 4 35 0 53 -17 32 -30 32 -64 -1 -96 -19 -20 -31 -24 -52 -19 -41 10
-56 30 -55 74 2 32 -4 44 -38 77 l-39 38 0 138 0 138 -103 0 -103 0 -47 48
-47 48 0 234 0 235 -135 135 c-90 90 -138 131 -145 124 -6 -6 34 -53 120 -139
l130 -130 0 -240 0 -240 100 -100 100 -100 0 -236 0 -236 25 -11 c48 -22 42
-102 -10 -122 -34 -13 -70 5 -85 40 -12 30 -5 55 24 80 14 11 16 47 16 244 l0
231 -105 105 -105 105 0 235 0 235 -129 129 c-107 106 -132 127 -150 121 -11
-3 -21 -9 -21 -13 0 -4 56 -63 125 -132 l125 -125 0 -239 0 -238 65 -66 65
-67 0 -332 0 -332 45 -27 c42 -24 54 -26 148 -25 l102 2 43 43 c40 40 42 44
31 70 -27 59 63 114 110 67 40 -40 15 -109 -41 -115 -17 -2 -49 -23 -82 -54
l-55 -52 -105 0 c-102 0 -106 1 -165 36 l-61 36 0 337 0 337 -65 64 -65 64 0
241 0 240 -130 130 c-71 71 -130 125 -130 120 0 -6 56 -66 125 -135 l125 -125
0 -245 0 -246 41 -39 c56 -56 83 -112 70 -148 -27 -70 -131 -45 -131 31 0 21
39 62 60 62 8 0 -7 22 -33 48 l-47 48 0 244 0 245 -123 123 c-120 120 -124
123 -150 111 -15 -7 -27 -15 -27 -18 0 -4 56 -62 125 -131 l125 -125 0 -360 0
-361 48 -47 c36 -36 52 -45 69 -41 38 10 70 -4 83 -37 11 -27 11 -33 -7 -57
-40 -54 -123 -30 -123 36 0 20 -14 41 -50 77 l-50 49 0 361 0 360 -134 134
c-89 89 -136 129 -141 121 -5 -8 29 -49 94 -114 l101 -101 0 -148 c0 -81 4
-147 8 -147 5 0 14 -11 20 -25 31 -67 -56 -127 -108 -75 -34 34 -21 93 26 110
24 9 24 11 24 141 l0 132 -103 105 c-99 99 -105 104 -128 92 -13 -7 -25 -14
-27 -15 -2 -2 28 -34 67 -71 l71 -67 0 -221 0 -221 86 -85 c47 -47 90 -95 95
-108 17 -44 -34 -101 -78 -85 -57 20 -71 78 -28 117 l24 22 -64 64 -65 64 0
216 0 216 -68 67 c-37 37 -74 67 -82 67 -8 0 -2 -13 18 -33 l32 -33 0 -178 c0
-164 1 -179 20 -194 33 -29 36 -67 6 -96 -33 -34 -69 -33 -95 0 -29 37 -26 61
9 94 l30 28 0 164 0 163 -28 33 c-26 31 -31 32 -55 21 l-27 -12 0 -267 c0
-318 -9 -298 125 -302 l89 -3 27 -45 c25 -40 28 -55 28 -140 l1 -96 38 -37
c29 -29 46 -37 73 -37 61 0 94 -58 58 -103 -44 -57 -130 -19 -116 52 5 23 -1
35 -39 72 l-44 43 0 91 c0 74 -4 97 -22 133 l-23 42 -86 0 c-80 0 -87 2 -112
28 l-27 28 0 258 c0 172 -3 257 -10 254 -7 -2 -11 -108 -12 -306 l-2 -302 34
-35 c40 -42 55 -43 86 -9 32 33 79 30 107 -7 20 -28 17 -57 -9 -84 -20 -19
-78 -19 -94 0 -7 8 -27 15 -44 15 -25 0 -42 11 -79 48 l-47 48 0 298 c0 164
-3 296 -7 294 -26 -11 -93 -54 -93 -59 0 -4 16 -24 35 -45 l35 -38 0 -256 0
-255 105 -105 c78 -77 111 -104 126 -102 39 6 66 -7 79 -39 11 -27 11 -33 -7
-57 -38 -52 -123 -31 -123 31 0 15 -36 58 -115 137 l-115 115 0 260 0 261 -34
33 c-33 32 -34 33 -60 16 l-27 -18 21 -22 c19 -20 20 -33 20 -325 l0 -304 42
-43 c25 -25 51 -43 64 -43 49 0 76 -59 47 -99 -43 -57 -131 -26 -120 42 4 27
-2 39 -39 79 l-44 47 0 309 c0 261 -2 311 -15 322 -12 10 -27 3 -87 -41 -148
-108 -206 -159 -213 -187 -10 -40 -34 -62 -70 -62 -22 0 -40 -9 -63 -33 l-32
-33 38 -37 c21 -20 46 -37 56 -37 53 0 85 -53 61 -101 -34 -65 -134 -26 -122
47 4 26 0 37 -27 63 -17 17 -36 31 -42 31 -5 0 -28 -18 -49 -40 l-39 -40 54
-55 54 -55 111 0 110 0 165 -166 165 -165 141 3 c158 3 174 -2 174 -58 0 -55
-52 -88 -95 -60 -19 12 -51 16 -141 16 l-117 0 -171 170 -171 170 -105 0 -104
0 -67 66 -66 66 -45 -49 c-61 -65 -93 -103 -173 -203 l-67 -85 209 -3 209 -2
53 -54 c46 -47 57 -53 75 -45 30 14 74 -5 86 -37 14 -35 -6 -75 -43 -88 -36
-13 -81 18 -85 60 -2 19 -22 47 -55 82 l-51 52 -212 0 -212 0 -36 -53 c-20
-29 -36 -56 -36 -60 0 -4 72 -7 161 -7 l161 0 28 30 c34 36 63 38 95 5 30 -29
32 -55 7 -86 -25 -30 -78 -31 -103 -1 -16 21 -25 22 -198 22 l-181 0 -25 -41
c-15 -22 -28 -46 -31 -52 -3 -9 134 -11 571 -9 l576 2 54 -50 c48 -46 55 -50
74 -39 28 18 72 1 89 -34 17 -35 -2 -77 -41 -91 -22 -8 -32 -6 -55 11 -15 11
-28 31 -30 44 -2 13 -24 45 -50 72 l-46 47 -586 0 -586 0 -22 -39 c-12 -21
-22 -41 -22 -45 0 -3 109 -6 243 -6 l244 0 23 25 c31 33 72 33 99 -1 26 -33
26 -55 3 -85 -25 -29 -74 -30 -105 -1 -23 21 -30 22 -280 22 l-257 0 -20 -40
c-11 -21 -20 -42 -20 -45 0 -3 172 -5 383 -5 l383 0 34 35 c27 28 34 43 31 66
-3 37 31 79 65 79 61 0 92 -83 45 -122 -13 -10 -33 -18 -44 -18 -12 0 -40 -18
-62 -40 l-41 -40 -407 0 -406 0 -16 -22 c-34 -49 -48 -48 477 -48 l493 0 92
92 c82 82 91 94 86 120 -7 37 28 78 68 78 30 0 69 -40 69 -70 0 -34 -33 -62
-76 -64 -36 -2 -48 -10 -128 -94 l-89 -92 -514 -2 -515 -3 -13 -32 -14 -33
547 0 548 0 74 75 74 75 63 0 63 0 0 -148 c0 -138 -2 -150 -21 -168 -15 -14
-19 -26 -15 -50 13 -67 -67 -111 -114 -64 -43 43 -13 110 49 110 20 0 42 5 49
12 8 8 12 55 12 145 l0 133 -33 0 c-27 0 -45 -12 -107 -75 l-74 -75 -563 0
c-546 0 -563 -1 -573 -19 -5 -11 -10 -22 -10 -25 0 -3 143 -6 318 -6 l318 0
44 -45 c34 -34 52 -45 76 -45 38 0 64 -27 64 -67 0 -37 -27 -63 -67 -63 -44 0
-67 30 -60 80 5 36 2 42 -34 75 l-39 35 -318 -2 -317 -3 -27 -75 c-17 -47 -25
-86 -22 -105 4 -21 -1 -38 -15 -56 -11 -14 -23 -38 -26 -52 l-7 -27 254 0 254
0 44 45 44 45 201 0 201 0 42 43 c23 23 42 52 42 63 0 36 28 64 64 64 40 0 66
-26 66 -67 0 -42 -30 -67 -73 -60 -31 5 -39 0 -83 -44 l-48 -49 -201 0 -201 0
-39 -40 -39 -40 -270 -2 c-249 -3 -271 -4 -274 -20 -3 -17 15 -18 278 -18
l282 0 33 29 c32 27 36 28 176 33 163 7 179 1 179 -58 0 -61 -71 -85 -114 -39
-21 23 -30 25 -108 25 -77 0 -87 -2 -108 -25 l-23 -25 -309 0 c-240 0 -308 -3
-308 -12 0 -7 -3 -23 -6 -35 l-6 -23 509 0 509 0 57 58 c40 40 57 65 57 83 0
53 78 80 113 41 42 -46 6 -119 -54 -110 -29 5 -38 -1 -92 -58 l-60 -64 -522 0
c-468 0 -524 -2 -529 -16 -18 -46 -42 -44 569 -44 562 0 575 0 595 20 41 41
110 13 110 -45 0 -24 -7 -39 -26 -54 -34 -27 -46 -26 -82 4 l-30 25 -559 0
-560 0 -20 -22 c-25 -29 -43 -169 -18 -148 7 6 15 23 17 37 2 14 15 35 30 46
34 26 73 16 93 -23 28 -55 -15 -108 -79 -96 -26 5 -37 1 -56 -19 l-23 -25 84
0 84 0 115 115 115 115 350 0 351 0 34 -35 c31 -32 39 -35 90 -35 51 0 59 3
89 34 l33 34 -2 205 -1 205 32 36 31 36 117 0 117 0 47 48 c26 26 47 57 47 68
0 48 80 73 113 36 23 -25 21 -75 -3 -97 -14 -13 -30 -16 -59 -12 -36 4 -42 1
-87 -44 l-48 -49 -112 0 c-95 0 -113 -3 -127 -18 -15 -16 -17 -47 -17 -228 l0
-210 -48 -47 -48 -47 -72 0 c-68 0 -74 2 -111 35 l-38 35 -329 0 -329 0 -110
-110 -109 -109 -101 -3 -100 -3 -3 -122 -3 -123 28 0 c23 0 62 34 218 190
l190 190 460 0 461 0 63 64 63 64 -17 26 c-22 33 -13 70 20 92 32 21 69 12 91
-21 22 -33 11 -72 -26 -93 -17 -9 -30 -21 -30 -27 0 -5 -33 -42 -72 -82 l-72
-73 -461 0 -460 0 -190 -190 c-179 -179 -192 -190 -227 -190 -31 0 -38 -4 -38
-20 0 -17 7 -20 43 -20 42 0 45 3 222 180 l180 180 490 0 c370 1 494 4 505 13
8 7 21 24 27 39 23 51 103 46 123 -7 19 -51 -33 -105 -83 -86 -15 6 -29 4 -42
-5 -15 -12 -105 -14 -505 -14 l-485 0 -185 -185 -185 -185 -47 0 c-45 0 -48
-2 -48 -25 0 -24 2 -25 68 -25 l67 0 195 195 195 195 295 0 296 0 47 -48 c39
-40 53 -48 76 -44 67 9 95 -79 39 -121 -23 -17 -31 -18 -57 -8 -28 12 -57 62
-43 75 3 4 -14 27 -38 51 l-44 45 -276 0 -275 0 -195 -195 -195 -195 -72 0
c-71 0 -73 -1 -73 -25 0 -25 1 -25 83 -25 l82 0 180 180 180 180 182 0 c181 0
182 0 207 25 32 32 60 32 91 0 32 -31 32 -59 0 -90 -29 -30 -54 -32 -88 -5
-23 18 -40 20 -199 20 l-173 0 -175 -175 -175 -175 -93 0 -93 0 3 -32 3 -33
95 -3 95 -3 165 166 165 165 360 0 361 0 47 48 c45 45 47 51 47 103 0 49 4 58
33 87 31 30 37 32 108 32 69 0 77 2 102 28 l27 28 0 229 0 229 -42 43 c-35 35
-46 41 -70 36 -35 -7 -78 28 -78 64 0 29 42 73 68 73 30 0 63 -32 66 -63 2
-17 21 -46 49 -75 l47 -48 0 -255 0 -255 -38 -37 c-36 -36 -41 -37 -108 -37
-92 0 -114 -20 -114 -101 0 -53 -1 -56 -58 -112 l-58 -57 -359 0 -360 0 -165
-165 -165 -165 -101 0 c-55 0 -103 -2 -106 -5 -3 -3 -3 -17 0 -30 4 -25 4 -25
126 -25 l121 0 165 165 165 165 335 0 335 0 88 88 c81 81 87 90 81 119 -5 26
-1 37 19 57 15 14 36 26 47 26 27 0 70 -43 70 -70 0 -31 -45 -72 -75 -68 -19
2 -45 -18 -123 -95 l-100 -98 -333 1 -333 1 -160 -160 -161 -161 -128 0 c-78
0 -127 -4 -127 -10 0 -6 54 -10 143 -10 l142 0 160 160 160 160 325 0 326 0
74 75 74 75 106 0 106 0 39 -40 c34 -34 44 -39 70 -34 68 12 112 -67 62 -114
-46 -43 -107 -16 -107 47 0 30 -7 44 -38 74 l-38 37 -90 0 -89 0 -80 -80 -80
-80 -330 0 -330 0 -155 -155 -155 -155 -143 0 c-131 0 -143 -1 -140 -17 3 -16
20 -18 153 -21 l150 -2 70 70 69 70 207 0 c193 0 207 1 224 20 25 28 79 27 99
-2 22 -31 20 -64 -4 -88 -30 -30 -75 -26 -102 10 l-22 30 -191 0 -191 0 -69
-70 -69 -70 -154 0 c-153 0 -153 0 -150 -22 3 -23 6 -23 163 -26 l161 -2 29
30 29 30 275 0 275 0 43 42 43 42 0 111 c0 104 2 113 23 133 21 20 34 22 123
22 l100 0 34 35 c19 19 40 35 48 35 8 0 27 14 42 30 34 36 63 38 95 5 32 -31
32 -59 0 -90 -31 -32 -59 -32 -91 0 -14 14 -28 25 -31 25 -3 0 -25 -18 -49
-40 l-44 -40 -98 0 c-63 0 -102 -4 -110 -12 -8 -8 -12 -50 -12 -123 l0 -111
-48 -47 -48 -47 -280 0 -280 0 -29 -30 -29 -30 -158 0 c-134 0 -158 -2 -158
-15 0 -13 24 -15 158 -15 l158 0 29 30 29 30 332 0 332 0 51 47 c57 52 63 76
26 105 -46 36 -20 118 38 118 65 0 92 -78 42 -122 -14 -12 -25 -31 -25 -43 0
-12 -24 -44 -58 -78 l-58 -57 -335 0 -335 0 -29 -30 -29 -30 -159 0 c-122 0
-158 -3 -155 -12 4 -10 49 -14 174 -16 l170 -2 29 30 29 30 331 0 330 0 98 98
97 97 0 76 c0 72 1 76 33 107 l33 32 120 0 120 0 38 -39 c25 -26 50 -41 69
-43 65 -7 86 -88 32 -124 -52 -34 -120 19 -98 76 10 26 7 32 -26 64 l-37 36
-105 0 c-97 0 -107 -2 -127 -23 -19 -20 -22 -35 -22 -98 l0 -74 -108 -108
-107 -107 -326 0 -325 0 -29 -30 -29 -30 -174 0 c-155 0 -173 -2 -168 -16 3
-9 6 -18 6 -20 0 -2 73 -4 163 -4 l163 0 34 35 34 35 326 0 325 0 138 138
c130 131 137 139 131 169 -5 26 -1 37 19 57 33 33 61 33 92 1 32 -31 32 -59
-1 -92 -19 -19 -32 -24 -53 -20 -26 5 -40 -7 -165 -139 l-138 -144 -325 0
-326 0 -43 -35 -42 -35 -155 0 c-84 0 -156 -3 -160 -6 -3 -3 -3 -12 0 -20 4
-11 38 -14 170 -14 l166 0 39 35 39 36 326 -1 327 -1 135 135 136 136 186 0
185 0 37 38 c34 35 37 42 37 96 0 50 -3 61 -25 78 -32 25 -33 67 -2 96 29 27
61 28 87 2 28 -28 26 -76 -5 -104 -21 -20 -25 -32 -25 -83 0 -57 -1 -60 -48
-106 l-48 -47 -179 0 -180 0 -140 -140 -140 -140 -330 0 -331 0 -29 -30 -29
-30 -169 0 c-155 0 -168 -1 -165 -17 3 -17 29 -18 361 -21 l358 -2 34 36 c30
32 39 36 67 30 74 -15 99 -96 44 -142 -42 -37 -103 -26 -125 22 l-11 24 -355
0 c-195 0 -355 -2 -355 -4 0 -2 9 -25 20 -50 l19 -46 392 0 392 0 71 67 c39
37 78 78 86 90 31 48 105 53 135 10 25 -36 19 -92 -11 -116 -39 -30 -77 -27
-114 11 l-31 31 -67 -66 -68 -67 -382 0 -383 0 7 -22 c3 -13 13 -35 21 -50
l14 -28 304 0 c284 0 305 1 317 18 16 23 51 42 77 42 36 0 75 -43 75 -83 0
-92 -118 -115 -156 -31 l-11 24 -294 0 -294 0 6 -22 c4 -13 15 -36 24 -53 l17
-30 326 -3 325 -2 42 42 c40 41 41 45 41 109 0 58 3 68 28 92 27 26 33 27 131
27 95 0 105 2 137 26 33 25 34 30 28 69 -8 57 1 82 38 101 85 44 161 -64 93
-132 -19 -19 -34 -25 -60 -23 -28 3 -41 -3 -73 -34 l-38 -37 -105 0 c-97 0
-107 -2 -127 -23 -18 -19 -22 -35 -22 -88 0 -64 0 -65 -48 -112 l-48 -47 -322
0 c-177 0 -322 -3 -322 -7 0 -3 11 -26 25 -50 l26 -43 94 0 c57 0 95 4 95 10
0 23 41 50 75 50 75 0 112 -84 60 -135 -31 -32 -86 -34 -115 -5 -11 11 -20 25
-20 30 0 6 -35 10 -85 10 l-84 0 31 -50 31 -50 120 0 120 0 102 100 c97 96
103 100 145 100 41 0 49 5 107 62 62 61 62 61 56 109 -5 42 -2 50 20 73 50 50
137 19 137 -49 0 -18 -3 -41 -6 -50 -10 -24 -62 -47 -92 -40 -23 5 -36 -4 -97
-65 -66 -66 -72 -70 -115 -70 -44 0 -48 -3 -145 -100 l-100 -100 -113 0 c-87
0 -113 -3 -110 -12 4 -10 46 -14 159 -16 l154 -2 165 165 165 165 96 0 c91 0
96 1 122 28 19 20 24 31 17 42 -32 51 10 130 70 130 67 0 106 -89 60 -138 -22
-23 -63 -38 -78 -28 -5 3 -24 -10 -42 -29 l-34 -35 -101 0 -100 0 -165 -165
-165 -165 -142 0 c-79 0 -143 -4 -143 -8 0 -28 30 -32 214 -32 l191 0 101 101
c100 100 102 102 97 141 -8 52 24 88 77 88 48 0 80 -33 80 -82 0 -52 -39 -82
-96 -74 -40 5 -41 5 -144 -99 l-105 -105 -183 0 c-143 0 -183 -3 -179 -12 3
-10 65 -13 268 -13 l264 0 -3 42 c-3 34 1 47 22 68 33 33 79 33 111 0 52 -51
15 -141 -55 -137 -16 1 -36 1 -42 1 -7 -1 -129 -3 -271 -6 -252 -4 -257 -4
-247 -23 10 -19 23 -20 308 -20 l298 0 42 43 42 43 0 80 0 80 40 39 c31 30 37
42 30 56 -17 31 -11 69 15 94 49 50 135 17 135 -51 0 -20 -4 -44 -10 -54 -12
-22 -61 -40 -90 -33 -15 4 -31 -4 -56 -28 -34 -32 -34 -34 -34 -119 l0 -86
-48 -47 -47 -47 -292 -2 -291 -3 46 -57 c47 -58 47 -58 103 -58 50 0 58 3 89
35 l34 35 156 0 155 0 149 149 148 148 -1 418 -2 417 93 94 92 94 570 0 570 0
43 -42 43 -42 0 -273 c0 -185 4 -280 12 -298 l11 -25 1082 0 1081 0 34 -35 34
-35 246 0 245 0 79 79 79 79 -2 88 -2 88 98 98 98 98 230 0 231 0 49 -50 49
-50 106 0 106 0 39 -40 c39 -40 40 -40 114 -40 75 0 75 0 118 -42 31 -31 53
-43 75 -44 64 -3 91 -82 43 -129 -28 -29 -51 -31 -83 -9 -31 21 -44 58 -32 88
7 20 3 29 -24 55 -30 29 -36 31 -112 31 l-80 0 -39 40 -39 40 -101 0 -101 0
-49 50 -49 50 -218 0 -219 0 -79 -82 -79 -83 -1 -85 0 -85 -98 -98 -97 -97
-261 0 -260 0 -34 35 -34 35 -1082 0 -1082 0 -26 44 -26 45 0 268 0 269 -33
32 -33 32 -540 0 -539 0 -83 -83 -82 -82 0 -415 0 -415 -162 -162 -163 -163
-150 0 -151 0 -34 -35 c-29 -30 -40 -35 -82 -35 -26 0 -48 -4 -48 -8 0 -14 75
-82 91 -82 8 0 39 25 69 55 l54 55 141 0 140 0 183 183 182 182 0 255 0 255
188 188 187 187 360 0 359 0 28 -27 28 -27 0 -236 0 -235 78 -78 77 -77 1070
0 1070 -1 40 -24 40 -25 280 0 280 0 123 123 122 122 0 85 0 85 78 78 77 77
186 0 185 0 44 -45 44 -45 86 0 86 0 44 -45 c31 -32 52 -45 72 -45 63 0 90
-78 43 -125 -27 -28 -42 -30 -79 -14 -28 13 -47 57 -39 89 4 15 -4 31 -28 56
-32 34 -34 34 -119 34 l-86 0 -49 50 -49 50 -161 0 -161 0 -67 -68 -67 -68 0
-89 0 -90 -128 -128 -127 -127 -310 0 c-293 0 -312 1 -340 20 -29 20 -49 20
-1105 20 l-1075 0 -88 88 -87 87 0 236 c0 216 -2 237 -18 252 -17 15 -56 17
-358 17 l-339 0 -173 -173 -172 -172 0 -250 0 -250 -203 -203 -202 -202 -135
0 -136 0 -53 -54 c-47 -48 -53 -57 -41 -71 12 -14 18 -12 55 25 l41 40 245 0
245 0 46 48 c39 39 46 53 46 85 0 79 83 117 137 62 33 -33 33 -78 -1 -112 -22
-22 -32 -25 -69 -21 -41 5 -46 3 -91 -43 l-48 -49 -245 0 -245 0 -38 -37 -38
-37 42 -43 c23 -24 46 -43 50 -43 4 0 8 18 8 39 0 73 84 108 135 56 53 -52 18
-135 -56 -135 -19 0 -40 5 -47 12 -9 9 -12 9 -12 1 0 -18 55 -53 82 -53 16 0
45 21 88 65 49 49 71 65 92 65 15 0 28 5 28 10 0 24 41 50 79 50 73 0 108 -84
56 -135 -38 -38 -87 -34 -122 10 -15 19 -33 35 -38 35 -6 0 -39 -29 -75 -65
-35 -35 -73 -66 -84 -67 -20 -3 -20 -4 2 -17 21 -11 27 -10 46 8 20 19 34 21
141 21 l119 0 153 153 153 153 0 141 c0 136 1 143 25 171 17 21 25 42 25 69 0
32 7 46 38 76 34 34 43 37 93 37 53 0 56 2 107 53 44 44 52 58 52 90 l0 37
273 0 272 0 80 -80 80 -80 1033 0 1034 0 59 -35 60 -35 255 0 254 0 0 -200 0
-200 -441 0 c-399 0 -444 2 -470 17 l-29 17 0 118 0 118 -300 0 -300 0 0 -135
0 -135 -203 0 -202 0 -100 100 -100 100 -590 0 -591 0 -52 -53 -52 -53 0 -134
0 -135 -243 -243 c-208 -208 -246 -242 -272 -242 l-30 0 28 -19 c28 -18 28
-18 57 10 35 36 69 37 109 3 33 -28 42 -78 19 -103 -11 -10 -9 -15 6 -27 55
-40 81 98 31 158 -31 37 -32 69 -1 104 33 39 89 39 122 0 34 -39 31 -72 -11
-112 -32 -30 -35 -37 -35 -93 0 -50 -3 -62 -22 -75 -12 -9 -20 -17 -17 -19 54
-40 50 -41 132 41 l77 77 0 122 c0 118 -1 121 -25 137 -57 38 -49 122 14 144
88 31 149 -75 81 -138 l-30 -28 0 -134 0 -134 -70 -69 c-38 -38 -70 -72 -70
-75 0 -4 49 -30 109 -59 l109 -53 25 26 c53 53 133 20 139 -57 2 -30 8 -43 21
-45 15 -3 17 6 17 84 l0 88 -42 43 c-34 34 -49 43 -78 43 -58 1 -97 47 -85
101 13 60 95 80 140 34 27 -26 33 -73 13 -93 -9 -9 -2 -23 35 -60 l47 -48 0
-106 c0 -103 4 -118 36 -118 2 0 4 91 4 203 l0 203 -73 72 c-68 67 -74 71
-107 66 -42 -7 -85 21 -92 60 -7 36 17 85 47 96 39 15 50 13 85 -17 29 -24 32
-31 27 -69 -4 -41 -3 -44 69 -115 l74 -73 0 -223 c0 -192 2 -223 15 -223 13 0
15 20 15 123 l0 122 78 78 c60 60 84 77 106 77 18 0 38 10 52 25 33 36 95 35
123 -1 28 -36 27 -79 -4 -109 -44 -45 -116 -26 -138 38 -13 35 -51 19 -120
-51 l-67 -68 0 -126 c0 -117 1 -126 20 -131 19 -5 20 0 20 72 l0 77 68 67 68
67 105 0 105 0 34 35 c27 28 34 42 32 68 -5 49 29 87 77 87 75 0 111 -82 60
-136 -21 -23 -30 -25 -70 -21 -43 5 -49 3 -80 -29 l-33 -34 -110 0 -109 0 -59
-58 -58 -59 0 -76 c0 -42 4 -78 8 -81 5 -3 32 18 60 47 44 45 50 57 49 89 -2
78 84 118 138 63 52 -51 15 -135 -59 -135 -19 0 -38 5 -42 11 -6 10 -94 -66
-94 -82 0 -14 86 -36 119 -31 23 3 41 -2 61 -16 15 -12 40 -24 54 -28 26 -6
26 -6 26 57 0 57 3 66 32 96 26 27 32 40 29 68 -2 26 4 41 23 60 76 76 188
-33 115 -111 -21 -23 -30 -25 -70 -21 -41 5 -49 3 -73 -22 -22 -23 -26 -36
-26 -83 0 -42 4 -57 16 -62 24 -9 34 -7 34 6 0 6 41 53 90 104 l90 91 0 100 0
99 35 34 c28 27 35 42 35 72 0 95 128 125 159 38 12 -35 7 -56 -22 -87 -22
-24 -70 -31 -97 -13 -11 7 -23 1 -47 -22 -33 -32 -33 -32 -33 -133 l0 -100
-90 -90 c-49 -49 -90 -95 -90 -102 0 -7 12 -16 26 -19 23 -6 38 5 126 94 99
98 100 100 84 123 -23 34 -20 76 9 104 27 28 79 33 107 11 23 -17 39 -61 31
-83 -11 -33 -46 -63 -72 -63 -20 0 -51 -24 -125 -99 l-98 -99 51 -11 c76 -16
81 -15 81 18 0 36 32 77 64 83 63 12 118 -50 95 -109 -11 -31 -13 -29 34 -37
l37 -7 0 558 0 558 88 88 88 88 219 0 218 0 32 -31 31 -30 680 0 679 0 88 88
c64 64 87 94 87 113 0 62 94 93 138 46 32 -34 30 -89 -4 -116 -15 -12 -41 -21
-58 -21 -26 0 -45 -15 -121 -95 l-90 -95 -716 0 -715 0 -34 35 -34 35 -179 0
-179 0 -69 -67 -69 -66 0 -549 c0 -480 2 -548 15 -548 13 0 15 64 15 517 l0
518 72 72 72 73 166 0 166 0 67 -68 c49 -49 67 -75 67 -94 0 -16 12 -38 30
-56 35 -36 38 -69 9 -106 -15 -19 -30 -26 -54 -26 -80 0 -109 87 -47 139 18
14 32 35 32 46 0 12 -24 44 -54 74 l-53 53 -164 -1 -164 -2 -58 -57 -57 -57 2
-515 3 -515 28 -3 27 -3 0 513 0 514 38 37 38 37 124 -1 c139 0 188 -12 207
-49 41 -79 -72 -153 -126 -84 -12 15 -21 33 -21 40 0 18 -150 20 -168 2 -9 -9
-12 -137 -12 -515 l0 -503 75 0 c60 0 75 3 75 15 0 9 -9 15 -24 15 -41 0 -76
36 -76 79 0 61 55 95 109 66 38 -19 48 -54 31 -106 -12 -35 -11 -41 5 -59 10
-11 26 -20 37 -20 19 0 24 15 8 25 -6 3 -10 51 -10 109 l0 102 -37 36 c-28 26
-47 36 -72 36 -61 1 -94 57 -66 112 41 78 170 26 139 -57 -10 -25 -7 -32 29
-70 l39 -41 -1 -102 c-2 -94 0 -105 20 -126 19 -20 32 -24 86 -24 35 0 63 4
63 8 0 14 -23 32 -42 32 -59 0 -100 57 -78 109 26 63 115 62 141 -1 11 -27 10
-35 -5 -61 -16 -29 -16 -31 5 -53 14 -15 34 -24 53 -24 23 0 27 3 18 12 -8 8
-12 50 -12 123 l0 111 -38 37 c-28 27 -41 34 -52 27 -30 -19 -78 -11 -99 16
-27 34 -27 64 0 98 41 52 128 24 134 -43 1 -22 15 -45 44 -75 l41 -42 0 -115
c0 -127 9 -149 63 -149 37 0 40 12 12 50 -14 19 -25 44 -25 57 0 33 43 73 77
73 91 0 109 -116 25 -153 -27 -11 -26 -11 17 -15 67 -5 71 -1 71 70 l0 63
-177 177 -178 178 -90 0 -91 0 -38 39 c-35 36 -40 38 -67 28 -57 -22 -119 56
-88 111 17 32 56 47 92 38 33 -8 61 -58 52 -93 -5 -20 0 -33 21 -54 27 -28 31
-29 123 -29 l95 0 188 -187 188 -187 0 -74 c0 -65 2 -73 18 -70 14 3 17 16 20
83 l3 79 -193 193 -193 194 -45 -1 c-72 -3 -79 -1 -100 20 -46 46 -9 130 56
130 44 0 74 -32 74 -80 0 -26 5 -40 13 -40 7 0 103 -91 215 -203 l202 -202 0
-83 c0 -66 3 -82 15 -82 12 0 15 18 15 98 l0 97 -205 205 c-177 177 -205 209
-205 235 0 22 -10 41 -33 63 l-33 32 -115 0 c-115 0 -115 0 -144 30 -18 19
-39 30 -56 30 -73 0 -109 95 -52 140 65 51 157 -30 113 -100 -7 -11 -2 -22 17
-42 26 -27 29 -28 143 -28 l116 0 37 -38 c28 -29 37 -46 37 -73 0 -31 17 -51
205 -239 l205 -205 0 -97 c0 -80 3 -98 15 -98 12 0 15 18 15 103 l0 102 -185
185 c-102 102 -188 195 -191 207 -6 23 10 61 35 80 44 34 121 -7 121 -65 0
-29 -31 -72 -53 -72 -6 0 59 -71 145 -157 l157 -158 3 -109 c2 -77 7 -111 16
-114 9 -3 12 23 12 110 l0 113 -120 120 -120 120 0 135 0 136 -38 37 c-33 32
-43 36 -70 31 -59 -12 -113 47 -92 100 31 84 156 59 148 -30 -2 -28 4 -41 40
-77 l42 -43 0 -140 0 -139 125 -125 125 -125 0 -108 c0 -95 2 -108 16 -103 9
3 22 6 29 6 10 0 12 9 8 34 -4 28 -1 39 20 60 46 46 117 24 133 -40 4 -17 11
-23 21 -20 8 3 17 6 19 6 2 0 4 15 4 33 0 46 -53 97 -101 97 -31 0 -48 14
-172 138 -121 122 -137 141 -137 171 0 23 -7 39 -25 53 -53 42 -22 131 45 131
43 0 70 -28 70 -74 0 -30 -6 -42 -30 -59 -55 -39 -45 -60 98 -203 122 -121
130 -128 165 -125 31 2 43 -4 77 -37 33 -32 40 -46 40 -77 0 -27 4 -38 15 -38
11 0 15 12 15 48 l0 47 -155 155 -155 155 0 120 0 121 -49 48 c-43 42 -52 47
-79 41 -90 -19 -147 98 -75 155 76 59 178 -25 134 -109 -8 -14 1 -28 45 -72
l54 -53 0 -121 0 -120 155 -155 c150 -149 154 -155 157 -199 2 -33 7 -46 18
-46 12 0 16 16 18 76 3 74 2 78 -28 107 -40 41 -41 83 -1 123 20 20 39 29 61
29 42 0 90 -47 90 -88 0 -33 -31 -78 -60 -87 -17 -6 -20 -15 -20 -77 0 -68 1
-70 23 -64 12 4 34 9 50 12 l27 7 0 131 0 132 -40 39 c-38 38 -41 38 -106 36
l-67 -2 -94 93 -93 93 0 77 c0 66 -3 77 -19 83 -57 18 -73 98 -28 142 56 57
147 20 147 -59 0 -38 -34 -88 -60 -88 -6 0 -10 -29 -10 -73 l0 -72 78 -78 77
-77 76 0 75 0 47 -48 47 -48 0 -132 c0 -102 3 -132 13 -132 21 0 137 41 137
49 0 4 -22 29 -50 56 -47 46 -50 52 -50 100 0 49 -2 52 -73 123 -66 66 -76 72
-104 66 -19 -4 -41 0 -61 10 -89 46 -35 187 62 162 49 -12 69 -42 64 -96 l-5
-49 74 -73 73 -72 0 -56 c0 -54 2 -57 53 -108 29 -29 59 -52 67 -52 8 0 -9 24
-38 53 l-52 53 0 102 0 103 -35 33 c-45 42 -46 77 -5 118 26 25 36 29 63 24
46 -9 71 -38 71 -82 0 -29 -7 -43 -32 -64 -32 -26 -32 -27 -32 -124 l0 -97 46
-49 c46 -49 73 -60 104 -40 12 8 10 14 -13 38 l-27 28 0 179 0 179 -42 43 -42
43 -96 0 c-94 0 -97 1 -125 30 -25 26 -33 29 -71 23 -38 -5 -46 -2 -73 25 -42
41 -42 83 -1 124 27 26 36 30 67 25 19 -4 44 -14 54 -23 23 -21 34 -76 20
-101 -8 -17 -5 -25 17 -47 26 -24 34 -26 123 -26 l95 0 52 -53 52 -53 0 -180
0 -180 29 -28 c22 -21 35 -26 52 -21 l23 8 -26 19 c-34 24 -44 68 -24 106 21
41 72 56 115 32 25 -13 45 -64 37 -95 -6 -24 -5 -25 14 -15 39 21 26 60 -45
130 -36 35 -65 72 -65 82 0 11 -7 18 -18 18 -30 0 -62 42 -62 81 0 72 84 106
135 54 33 -32 32 -75 -2 -115 l-26 -31 66 -67 c50 -50 67 -75 67 -95 0 -37 19
-34 63 8 28 27 44 35 74 35 54 0 69 12 44 34 -15 14 -34 17 -90 15 -63 -2 -74
1 -96 21 -24 22 -25 29 -25 135 l0 111 -40 39 c-36 35 -45 39 -84 36 -37 -2
-47 2 -65 25 -64 82 42 182 116 108 22 -22 25 -32 21 -69 -5 -41 -3 -46 38
-86 l44 -43 0 -111 c0 -73 4 -115 12 -123 7 -7 43 -12 89 -12 69 0 81 -3 105
-25 22 -20 30 -23 47 -13 20 10 19 13 -28 55 -33 29 -54 41 -65 36 -8 -4 -30
-7 -48 -7 -73 1 -105 92 -48 140 37 32 71 30 108 -6 23 -24 29 -37 26 -60 -4
-25 4 -37 49 -82 l53 -52 37 18 37 17 -250 250 -249 249 -85 0 c-85 0 -87 -1
-119 -34 -20 -21 -30 -39 -26 -47 15 -23 6 -71 -16 -95 -31 -33 -82 -32 -114
1 -53 52 -15 135 63 135 30 0 45 7 72 35 l34 35 106 0 105 0 245 -245 c213
-213 249 -245 275 -245 16 0 39 7 49 15 19 14 18 15 -15 15 -31 0 -53 19 -259
225 l-225 225 -6 428 -6 427 109 110 108 110 0 95 0 96 53 52 53 52 135 0 135
0 39 -40 c32 -33 46 -40 76 -40 29 0 43 -6 58 -26 12 -15 21 -33 21 -40 0 -28
-24 -63 -51 -74 -57 -24 -106 21 -96 87 6 33 2 42 -25 70 l-32 33 -125 0 -125
0 -43 -42 -43 -42 0 -95 0 -96 -106 -106 -106 -107 1 -298 c1 -165 4 -354 8
-422 l6 -122 209 -214 208 -214 56 -4 c30 -1 62 1 70 5 29 16 12 27 -44 27
l-57 0 -208 208 -207 207 0 409 0 409 105 107 105 106 0 85 0 85 38 37 c37 36
40 37 110 37 53 0 83 -5 112 -20 38 -20 40 -23 40 -69 0 -86 -39 -81 587 -81
l551 0 241 247 c201 207 241 252 241 277 0 19 11 38 33 60 28 25 38 47 54 114
12 45 18 82 14 82 -3 0 -116 -110 -251 -245 l-245 -245 -381 0 -381 0 -42 45
-42 45 -117 0 -117 0 -93 93 -92 92 0 55 c0 55 -1 56 -65 120 l-65 64 0 280 0
279 -25 23 c-33 31 -33 77 0 109 30 31 56 32 91 2 19 -17 27 -33 27 -55 0 -33
-27 -72 -50 -72 -10 0 -13 -52 -13 -278 l0 -278 65 -64 c64 -64 65 -65 65
-120 l0 -55 83 -83 83 -82 120 0 120 0 44 -45 44 -45 366 0 365 0 262 262
c189 189 264 271 269 293 5 24 -48 -24 -267 -242 l-274 -273 -345 0 -346 0
-49 50 -49 50 -90 0 -90 0 -43 42 c-37 37 -48 42 -81 40 -48 -4 -76 24 -76 75
0 41 31 73 71 73 33 0 73 -42 73 -78 0 -19 12 -39 38 -65 l38 -37 90 0 90 0
49 -50 49 -50 331 0 330 0 285 285 c157 156 286 291 288 300 3 11 -5 15 -30
15 -30 0 -58 -24 -298 -265 l-265 -265 -300 0 -299 0 -56 55 c-56 55 -56 56
-75 35 -40 -44 -125 -9 -125 52 0 39 36 78 72 78 25 0 47 -16 117 -85 l87 -85
280 0 279 0 265 265 265 265 47 0 c41 0 48 3 48 20 0 18 -7 20 -58 20 l-57 0
-255 -255 -255 -255 -212 0 c-200 0 -214 -1 -233 -20 -56 -56 -145 4 -119 80
21 58 82 68 122 20 l26 -30 198 0 198 0 255 255 255 255 72 0 c71 0 73 1 73
25 0 25 -1 25 -87 25 l-88 0 -240 -240 -240 -239 -161 -2 c-100 0 -170 3 -182
10 -14 7 -140 11 -383 11 l-363 0 -43 42 -43 42 0 501 0 501 -42 41 c-24 22
-56 45 -73 50 -41 13 -61 54 -43 90 19 41 61 52 96 26 22 -16 27 -28 27 -61 0
-34 7 -48 38 -79 l37 -39 0 -506 0 -507 35 -28 35 -28 367 -7 c203 -4 435 -10
517 -13 l150 -6 240 240 241 240 105 3 105 3 3 28 3 27 -108 0 -108 0 -240
-240 -240 -240 -180 0 c-114 0 -185 4 -192 11 -7 7 -21 5 -45 -7 -31 -14 -39
-15 -64 -3 -56 27 -58 106 -2 135 40 21 67 9 105 -48 l29 -43 159 -3 160 -2
240 240 240 240 122 0 123 0 0 35 0 35 -117 0 -117 0 -251 -250 -251 -250
-120 0 -120 0 -54 55 c-53 53 -56 55 -109 55 l-55 0 -101 -100 c-113 -110
-141 -122 -183 -77 -67 71 34 172 103 103 l23 -23 73 73 73 74 66 0 66 0 54
-55 54 -55 111 0 110 0 245 245 245 245 127 0 128 0 0 30 0 30 -141 0 -141 0
-250 -242 -249 -242 -87 3 c-86 2 -87 3 -127 42 l-41 39 -100 0 -100 0 -49
-50 -49 -50 -106 0 -106 0 -37 -38 c-25 -25 -37 -47 -37 -66 0 -39 -15 -61
-50 -76 -25 -10 -34 -10 -55 4 -55 36 -56 95 -1 132 20 12 32 14 55 6 26 -9
32 -7 67 29 l38 39 106 0 106 0 49 50 49 50 121 0 121 0 39 -40 c38 -39 41
-40 104 -40 l65 0 251 250 251 250 152 0 c145 0 152 1 152 20 0 19 -7 20 -188
20 l-187 0 -203 -203 c-166 -166 -202 -207 -202 -230 0 -35 -41 -77 -75 -77
-33 0 -75 41 -75 73 0 13 10 36 21 51 18 23 28 27 61 25 38 -3 41 -1 246 204
l207 207 198 0 c190 0 197 1 197 20 0 19 -7 20 -208 20 l-207 0 -165 -165
-165 -165 -55 0 -55 0 -80 -80 -80 -80 -156 0 -157 0 -7 -30 c-13 -59 -78 -78
-120 -35 -31 30 -33 75 -4 101 20 18 36 19 223 16 l201 -4 80 81 80 81 55 1
55 0 170 165 169 164 208 0 c178 0 208 2 208 15 0 13 -32 15 -228 15 l-227 0
-150 -150 -150 -150 -70 0 -70 0 -90 -90 -90 -90 -85 0 c-85 0 -86 0 -120 35
l-34 35 -146 0 c-135 0 -148 2 -165 20 -13 14 -22 17 -29 10 -17 -17 -75 -11
-96 10 -30 30 -27 83 6 109 34 26 54 26 88 0 19 -15 26 -30 26 -53 0 -59 18
-66 181 -66 l145 0 34 -35 c33 -34 36 -35 110 -35 l75 0 90 90 90 90 64 0 65
0 156 155 156 155 233 0 c216 0 232 1 229 18 -3 15 -24 17 -243 20 l-240 2
-160 -160 -160 -160 -121 0 c-107 0 -123 -2 -138 -19 -17 -18 -17 -22 -2 -43
23 -32 20 -65 -9 -93 -45 -46 -115 -24 -131 41 -9 35 23 76 69 89 19 5 46 20
59 33 22 20 34 22 139 22 l114 0 160 160 160 160 248 0 c231 0 248 1 245 18
-3 16 -25 17 -263 20 l-260 2 -160 -160 -160 -160 -145 0 -145 0 -80 -80 -80
-80 -85 0 -85 1 -127 125 c-79 77 -128 133 -128 145 0 26 43 69 70 69 26 0 70
-43 70 -68 0 -10 -7 -27 -14 -38 -14 -18 -9 -25 67 -101 l82 -83 70 0 70 0 80
80 80 80 145 0 145 0 155 155 155 155 267 0 c156 0 268 4 268 9 0 41 0 41
-289 41 l-276 0 -150 -150 -150 -150 -150 0 -151 0 -74 -75 -74 -75 -71 0
c-70 0 -71 0 -113 43 l-42 43 0 134 c0 109 -3 137 -16 151 -15 17 -17 17 -44
-3 -35 -25 -73 -19 -96 17 -21 32 -12 69 21 91 35 23 70 11 99 -34 13 -20 33
-46 45 -56 19 -18 21 -29 21 -156 l0 -136 33 -32 c30 -29 39 -32 93 -32 l60 0
74 75 74 75 151 0 150 0 150 150 150 150 283 0 c255 0 284 2 278 16 -3 9 -6
20 -6 25 0 5 -118 9 -283 9 l-282 0 -150 -150 -150 -150 -181 0 c-176 0 -181
-1 -202 -23 -12 -13 -22 -33 -22 -46 0 -78 -97 -104 -129 -35 -17 39 14 94 54
94 11 0 36 16 55 35 l34 35 181 0 180 0 155 155 155 155 282 0 c182 0 283 4
283 10 0 6 -108 10 -303 10 l-302 0 -145 -145 -145 -145 -215 0 c-210 0 -216
1 -244 23 -22 18 -29 32 -29 57 0 36 31 70 63 70 28 0 70 -39 70 -66 l0 -24
167 0 166 0 147 145 146 145 302 0 302 0 0 25 0 25 -313 0 -312 0 -150 -150
-150 -150 -120 0 -120 0 -95 95 -95 95 -180 0 -181 0 -29 -30 c-28 -29 -32
-30 -120 -30 -90 0 -91 0 -123 33 -31 32 -32 35 -32 128 l0 95 50 49 c47 47
49 50 43 92 -4 34 -2 48 12 63 23 25 76 26 98 2 38 -41 10 -112 -44 -112 -17
0 -42 -18 -77 -53 l-52 -53 0 -80 c0 -67 4 -86 21 -108 19 -24 26 -26 103 -26
78 0 84 1 111 30 l29 30 191 0 190 0 95 -95 95 -95 110 0 110 0 155 155 154
154 303 -2 c167 -1 303 1 303 6 0 4 -147 7 -328 7 l-327 0 -140 -140 -140
-140 -90 0 -90 0 -95 95 -95 95 -242 0 c-151 0 -243 -4 -243 -10 0 -5 -13 -16
-29 -25 -70 -36 -134 46 -81 103 31 32 74 29 102 -8 l22 -30 241 0 240 0 95
-95 95 -95 76 0 77 0 144 140 143 139 328 1 c307 0 328 1 325 18 -3 16 -28 17
-328 20 l-325 2 -150 -150 -150 -150 -60 0 c-59 0 -62 1 -108 48 -46 47 -47
49 -47 113 0 58 -3 68 -28 92 -27 26 -33 27 -128 27 l-100 0 -44 46 c-40 40
-49 44 -78 39 -26 -5 -37 -1 -57 19 -14 14 -25 34 -25 44 0 30 38 72 66 72 35
0 78 -45 70 -73 -4 -17 6 -33 41 -69 l47 -48 101 0 101 0 32 -33 c30 -31 32
-38 32 -103 0 -68 1 -71 38 -107 32 -31 44 -37 83 -37 44 0 46 1 194 150 l150
150 327 0 c226 0 328 3 328 11 0 6 -5 19 -10 30 -10 18 -25 19 -363 19 l-352
0 -97 -97 c-75 -77 -97 -106 -102 -134 -8 -45 -27 -62 -68 -62 -35 0 -68 32
-68 67 0 45 76 86 106 56 6 -6 46 26 114 95 l105 105 353 0 c279 0 353 3 350
13 -4 9 -85 13 -354 15 l-349 3 -85 -86 -85 -85 -75 0 -76 0 -68 69 -69 70
-28 -30 c-32 -34 -57 -37 -93 -8 -35 28 -35 70 0 98 35 28 59 26 90 -4 14 -14
28 -25 32 -25 4 0 39 -31 77 -70 l69 -70 66 0 65 0 85 85 84 85 351 3 350 2
-431 3 c-472 2 -460 4 -448 -56 5 -24 1 -36 -19 -56 -33 -33 -61 -33 -92 -1
-32 31 -32 59 1 92 19 19 32 24 53 20 22 -5 34 0 51 19 l23 24 419 0 c394 0
419 1 416 18 -3 16 -53 17 -858 20 l-855 2 -140 140 -140 140 -50 0 -51 0
-122 -124 -123 -123 3 -149 3 -149 53 -3 52 -3 0 -150 0 -149 -55 0 -55 0 0
-175 c0 -160 6 -197 25 -165 10 16 61 11 77 -7 35 -42 27 -91 -18 -112 -25
-11 -66 -2 -79 18 -3 6 -22 11 -41 11 l-34 0 0 215 0 215 -105 0 -105 0 0
-253 0 -253 58 -57 58 -57 255 0 255 0 37 -38 37 -38 0 -282 0 -282 -35 0 -35
0 0 -54 0 -53 58 -39 c48 -32 65 -38 111 -39 46 0 56 -4 74 -27 33 -45 -2
-118 -58 -118 -36 0 -75 42 -75 79 0 27 -9 37 -70 78 l-69 48 -1 63 0 62 -40
0 -39 0 -3 132 -3 132 -55 17 -55 17 -62 -61 -63 -61 0 -336 0 -335 -80 -80
-79 -79 -3 -75 -3 -76 -47 -3 -48 -3 0 98 0 99 45 44 c25 24 45 48 45 52 0 4
-20 8 -45 8 l-45 0 0 139 0 139 -37 7 c-35 6 -39 4 -110 -67 l-73 -72 0 -171
0 -171 -38 -37 -38 -37 -1068 2 -1067 3 0 260 1 260 -57 63 -58 62 -392 0
-393 0 0 284 c0 253 2 285 16 290 14 6 16 18 10 94 -7 80 -5 89 14 109 41 45
106 41 143 -8 14 -20 20 -49 24 -113 5 -73 8 -86 23 -86 23 0 30 -60 30 -245
l0 -140 105 105 105 105 0 485 0 485 85 85 c83 83 85 86 85 132 l0 48 -155 0
-155 0 0 50 0 50 -125 0 c-112 0 -127 2 -145 20 -24 24 -26 57 -4 88 14 20 23
22 123 22 106 0 108 0 136 30 l29 30 607 0 c598 0 608 0 614 20 3 11 3 24 0
30 -9 14 -80 50 -100 50 -25 0 -55 38 -55 69 0 49 39 71 124 71 l70 0 58 -57
c57 -57 58 -58 58 -115 0 -54 1 -57 28 -60 l27 -3 3 -152 3 -153 -152 0 c-134
0 -150 -2 -145 -16 3 -9 6 -18 6 -20 0 -2 79 -4 175 -4 l175 0 0 197 0 197 48
-47 48 -47 386 0 386 0 57 33 56 32 -180 3 -181 2 0 35 0 35 -95 0 -95 0 0 65
0 65 72 0 c71 0 73 0 115 42 l43 42 0 76 0 75 85 85 85 85 0 59 0 59 -95 96
-95 97 0 781 0 781 -31 6 c-17 3 -42 6 -55 6 l-24 0 0 -337 0 -338 35 -58 35
-58 0 -317 0 -318 -45 -44 c-34 -34 -45 -52 -45 -75 0 -36 -35 -75 -66 -75
-38 0 -64 28 -64 70 0 40 26 70 60 70 9 0 35 19 58 43 l42 43 0 288 0 289 -35
63 -35 62 0 351 0 351 -35 0 -35 0 0 -414 0 -414 25 -43 c14 -24 25 -54 25
-66 0 -13 6 -23 13 -23 22 0 47 -34 47 -63 0 -57 -77 -89 -113 -49 -21 23 -22
76 -2 96 21 20 19 65 -5 104 -19 31 -20 50 -20 451 l0 419 -25 4 c-13 3 -27 3
-30 0 -3 -3 -5 -246 -5 -541 l0 -536 105 -102 c61 -60 105 -110 105 -122 0
-33 -34 -64 -70 -64 -62 0 -90 65 -48 110 l22 24 -72 72 -72 72 0 548 0 547
-30 0 -30 0 0 -428 0 -429 -24 -22 c-28 -26 -25 -51 11 -94 28 -35 30 -70 2
-98 -28 -28 -76 -22 -102 13 -17 23 -18 30 -7 57 7 17 21 33 32 37 16 5 18 12
13 43 -5 31 -2 40 19 61 l26 23 0 419 0 418 -30 0 -30 0 0 -432 0 -433 -50
-28 -50 -28 0 -68 c0 -64 1 -68 38 -104 36 -35 41 -37 107 -37 68 0 70 -1 112
-42 l43 -42 0 -109 0 -108 -49 -52 c-31 -32 -50 -63 -53 -81 -4 -42 -49 -73
-85 -60 -37 13 -57 53 -43 88 13 35 52 53 84 38 21 -9 28 -6 65 32 l41 42 0
105 c0 102 -1 106 -28 132 -25 24 -35 27 -103 27 l-75 0 -42 43 -42 43 0 86 0
87 50 27 50 27 0 424 0 424 -47 -3 -48 -3 -3 -395 -2 -394 -26 -27 c-25 -26
-25 -31 -25 -150 l0 -123 80 -80 c78 -78 81 -79 106 -66 54 29 119 -28 94 -83
-13 -29 -51 -49 -76 -40 -30 10 -53 35 -53 57 0 14 -35 56 -95 116 l-95 95 0
127 c0 127 0 127 30 161 l30 35 0 387 c0 363 -1 386 -17 383 -17 -3 -18 -29
-21 -349 -2 -331 -3 -347 -22 -364 -19 -17 -20 -31 -20 -209 l0 -192 70 -69
70 -69 0 -231 0 -230 48 -26 c33 -18 57 -25 76 -22 33 7 76 -29 76 -64 0 -29
-42 -73 -68 -73 -37 0 -66 34 -65 74 1 34 -3 39 -48 64 l-49 27 0 235 0 236
-70 69 -70 69 0 205 c0 191 1 206 20 226 20 21 20 33 18 356 l-3 334 -41 -3z
m-193 -1773 c28 -28 22 -76 -12 -102 -44 -32 -99 -1 -99 55 0 62 67 91 111 47z
m829 1 c51 -51 -10 -142 -73 -108 -29 15 -37 27 -37 62 0 60 68 88 110 46z
m-1930 -552 c25 -28 26 -62 0 -88 -40 -40 -120 -12 -120 42 0 31 38 68 71 68
16 0 37 -9 49 -22z m280 0 c40 -43 11 -108 -50 -108 -34 0 -70 30 -70 59 0 10
9 30 21 45 26 33 70 35 99 4z m270 -5 c23 -29 21 -66 -5 -92 -22 -23 -75 -18
-97 8 -24 31 -23 60 4 88 30 32 71 30 98 -4z m266 19 c15 -10 34 -47 34 -66 0
-26 -38 -56 -70 -56 -34 0 -70 30 -70 59 0 31 39 71 68 71 15 0 32 -4 38 -8z
m-1334 -19 c26 -23 24 -78 -4 -97 -47 -33 -108 -7 -108 46 0 17 7 40 17 50 20
22 70 23 95 1z m4097 -269 c12 -15 21 -32 21 -39 0 -7 -9 -24 -21 -39 -55 -69
-154 9 -103 82 22 32 76 30 103 -4z m-4084 -14 c39 -43 9 -110 -51 -110 -36 0
-64 29 -64 65 0 58 76 88 115 45z m4075 -240 c51 -51 -9 -138 -74 -109 -28 13
-48 52 -39 76 19 54 76 70 113 33z m-4080 -10 c28 -28 27 -84 -2 -104 -30 -21
-50 -20 -82 5 -35 28 -35 70 0 98 33 26 58 27 84 1z m251 9 c50 -26 39 -109
-17 -123 -62 -16 -110 68 -65 113 23 23 52 27 82 10z m-268 -290 c30 -16 37
-28 37 -66 0 -56 -69 -84 -110 -43 -29 29 -26 74 6 99 31 24 37 25 67 10z
m278 -7 c45 -37 16 -122 -41 -122 -9 0 -29 9 -44 21 -35 28 -35 70 0 98 33 26
55 26 85 3z m3819 -262 c54 -54 -11 -141 -79 -105 -32 16 -44 46 -31 80 17 46
76 59 110 25z m277 -2 c37 -35 25 -90 -23 -108 -50 -20 -104 33 -84 84 18 48
69 59 107 24z m-4636 -279 c28 -28 22 -76 -12 -102 -45 -33 -99 -1 -99 58 0
59 69 86 111 44z m-22 -1044 c73 -37 43 -155 -39 -155 -84 0 -110 115 -35 158
27 15 41 15 74 -3z m550 -20 c73 -37 43 -155 -39 -155 -84 0 -110 115 -35 158
27 15 41 15 74 -3z m379 -21 c12 -14 22 -36 22 -50 0 -34 -51 -84 -85 -84 -33
0 -85 50 -85 82 0 13 7 34 16 46 33 48 92 50 132 6z m-622 -267 c74 -64 -17
-188 -95 -130 -52 39 -54 110 -3 137 39 22 67 19 98 -7z m258 2 c19 -15 26
-30 26 -54 0 -47 -8 -64 -41 -80 -39 -21 -53 -19 -88 11 -84 70 17 191 103
123z m357 -8 c35 -36 37 -70 5 -107 -47 -56 -146 -20 -146 52 0 34 51 84 85
84 16 0 38 -12 56 -29z m-620 -270 c17 -18 29 -40 29 -56 0 -35 -50 -85 -85
-85 -16 0 -38 12 -56 29 -17 18 -29 40 -29 56 0 35 50 85 85 85 16 0 38 -12
56 -29z m3814 -266 c62 -61 -3 -162 -86 -133 -39 13 -64 64 -50 102 22 57 94
74 136 31z m-1357 -261 c64 -72 -28 -173 -106 -118 -52 36 -48 109 7 139 33
19 70 11 99 -21z m-2183 -9 c52 -51 15 -135 -59 -135 -26 0 -40 7 -60 31 -30
35 -32 49 -11 89 17 32 27 38 73 39 22 1 41 -7 57 -24z m270 19 c23 -9 48 -62
41 -90 -15 -57 -90 -83 -135 -46 -12 9 -24 34 -27 54 -5 30 -2 41 19 62 26 26
66 33 102 20z m280 -19 c51 -50 15 -135 -58 -135 -38 0 -74 28 -83 64 -6 26
17 81 38 89 34 14 80 6 103 -18z m272 3 c30 -28 31 -83 1 -115 -47 -51 -138
-12 -138 58 0 70 85 106 137 57z m260 -4 c21 -21 24 -32 19 -62 -7 -44 -37
-72 -78 -72 -41 0 -63 14 -78 50 -14 34 0 83 29 100 31 18 81 11 108 -16z
m800 11 c42 -30 34 -121 -12 -139 -47 -18 -91 -4 -111 36 -30 58 6 118 71 118
17 0 40 -7 52 -15z m-1886 -284 c17 -18 29 -40 29 -56 0 -34 -50 -85 -84 -85
-72 0 -108 99 -52 146 37 32 71 30 107 -5z m285 5 c56 -47 20 -146 -52 -146
-34 0 -84 51 -84 85 0 34 50 85 84 85 14 0 37 -11 52 -24z m265 -5 c17 -18 29
-40 29 -56 0 -34 -50 -85 -84 -85 -41 0 -80 41 -80 85 0 29 7 43 28 61 37 32
71 30 107 -5z m282 -2 c19 -23 22 -70 7 -98 -16 -31 -65 -46 -100 -31 -48 20
-65 74 -39 121 23 43 99 47 132 8z m262 -264 c65 -64 -12 -173 -93 -131 -34
17 -42 34 -42 81 0 67 87 99 135 50z"/>
<path d="M7170 12085 c0 -3 0 -346 0 -762 l0 -757 90 -91 90 -90 0 -100 0
-100 -85 -85 -85 -85 0 -57 0 -58 308 0 308 0 47 -48 47 -47 2 -220 3 -220
103 0 104 0 -1 164 -2 164 148 148 147 149 81 0 80 0 140 -140 140 -140 817 0
c565 0 818 3 818 10 0 6 -7 24 -15 40 l-16 30 -746 0 -747 0 -96 93 c-53 50
-109 100 -124 110 -21 15 -26 25 -24 49 4 44 48 75 85 62 36 -12 56 -54 44
-87 -8 -22 -2 -31 63 -96 l71 -71 723 0 c397 0 722 4 722 8 0 5 -6 16 -13 26
-12 16 -14 16 -26 2 -12 -14 -64 -16 -465 -16 l-452 0 -49 50 c-39 40 -56 50
-82 50 -71 0 -98 81 -41 123 23 17 31 18 57 8 33 -14 52 -55 41 -86 -6 -16 2
-30 38 -67 l46 -48 437 0 c384 0 439 2 453 16 20 19 20 17 -4 64 l-20 40 -330
0 -329 0 -25 -25 c-14 -14 -34 -25 -44 -25 -33 0 -72 38 -72 70 0 32 39 70 72
70 11 0 33 -13 48 -30 l28 -30 309 0 c170 0 312 3 316 6 3 3 -8 28 -25 55
l-30 49 -517 0 -517 0 -46 -47 c-27 -28 -49 -62 -53 -81 -13 -64 -86 -80 -121
-27 -21 32 -12 69 22 92 22 14 31 15 57 5 30 -11 33 -10 82 38 l50 50 513 2
512 3 -56 84 -56 83 -52 -51 -52 -51 -181 0 c-148 0 -183 -3 -193 -15 -18 -21
-66 -19 -90 5 -25 25 -26 61 -2 90 18 22 22 22 227 21 l208 -2 39 38 c21 20
38 40 38 44 0 3 -13 22 -28 42 l-29 36 -39 -40 -38 -39 -201 0 -201 0 -72 -73
c-39 -40 -72 -78 -72 -84 0 -17 -41 -43 -67 -43 -53 0 -84 78 -45 113 24 22
76 22 97 1 15 -16 21 -12 84 50 l67 66 196 0 197 0 36 31 c42 37 43 48 10 79
l-25 24 -43 -42 -43 -42 -180 0 -180 0 -54 -55 -54 -55 -86 0 -86 0 -42 -43
c-23 -23 -42 -51 -42 -60 0 -26 -45 -67 -73 -67 -29 0 -67 39 -67 69 0 12 11
33 25 47 20 20 31 24 57 19 29 -5 38 -1 78 39 l44 46 86 0 86 0 54 55 54 55
180 0 180 0 38 37 37 36 -21 29 -21 30 -41 -41 -42 -41 -309 0 -310 0 -158
-158 c-86 -86 -157 -165 -157 -174 0 -18 -45 -58 -65 -58 -7 0 -24 9 -39 21
-59 46 -18 129 57 115 31 -6 38 0 187 149 l155 155 309 0 310 0 33 32 32 31
-21 29 -21 30 -46 -46 -47 -46 -110 0 -110 0 -38 67 c-34 58 -40 64 -48 47
-25 -47 -70 -57 -107 -23 -30 28 -25 75 11 102 27 20 29 20 63 4 20 -9 43 -17
53 -17 10 -1 33 -27 57 -67 l40 -66 85 2 c83 2 86 3 123 39 l37 36 -42 43
c-46 47 -65 45 -46 -4 23 -60 -43 -114 -97 -79 -51 33 -41 96 20 122 66 27 68
26 -135 198 -131 112 -264 209 -268 196 -3 -7 20 -36 49 -66 42 -42 60 -54 84
-54 36 0 75 -35 75 -66 0 -36 -28 -64 -66 -64 -45 0 -78 32 -71 69 5 24 -3 36
-54 87 -51 50 -59 63 -59 95 0 29 -6 43 -26 58 -15 12 -31 21 -35 21 -5 0 -9
-43 -9 -95 0 -81 3 -100 21 -124 26 -36 17 -76 -22 -96 -71 -37 -133 51 -74
106 23 23 25 29 25 139 l-1 115 -44 27 -45 27 0 -237 0 -238 45 -44 c26 -26
54 -44 69 -45 58 -2 87 -74 46 -115 -45 -45 -110 -10 -110 58 0 32 -7 45 -50
87 l-50 49 0 257 0 257 -25 16 c-13 9 -27 16 -30 16 -3 0 -5 -109 -5 -242 l-1
-243 -69 -75 -69 -75 -1 -100 0 -100 -190 -190 c-148 -148 -190 -195 -190
-216 0 -38 -35 -71 -72 -67 -40 4 -73 46 -64 82 7 29 56 59 81 49 13 -4 67 44
206 183 l189 189 0 100 0 101 65 64 65 64 0 253 c0 239 -1 253 -19 263 -11 5
-22 10 -25 10 -3 0 -6 -114 -6 -253 l0 -252 -85 -85 c-87 -87 -97 -108 -70
-144 21 -28 19 -62 -6 -87 -28 -28 -76 -22 -102 13 -17 23 -18 30 -7 57 7 17
21 33 31 36 12 4 19 16 19 31 0 17 25 51 85 113 l85 88 0 262 c0 167 -4 261
-10 261 -6 0 -10 -76 -10 -208 l0 -208 -44 -43 c-30 -29 -42 -49 -39 -62 15
-55 -40 -104 -89 -78 -30 16 -38 28 -38 62 0 33 32 67 63 67 13 0 38 16 60 38
l37 38 0 212 0 212 -45 22 -45 22 -60 -59 -60 -59 0 -316 0 -316 -49 -48 c-40
-40 -48 -53 -42 -70 24 -64 -60 -115 -109 -66 -11 11 -20 30 -20 43 0 32 27
67 53 67 14 0 42 19 70 48 l47 48 0 309 0 309 63 64 c65 66 66 73 9 88 -20 6
-36 -6 -98 -67 l-74 -73 0 -219 0 -219 30 -28 c37 -34 38 -63 4 -96 -29 -30
-67 -27 -96 8 -23 27 -23 49 2 81 19 24 20 40 20 264 l0 239 70 69 c68 68 69
70 47 82 -38 21 -50 15 -125 -60 l-72 -72 0 -481 0 -480 38 -37 c28 -27 46
-37 70 -37 60 0 91 -59 56 -108 -35 -50 -132 -11 -120 49 4 21 -4 35 -45 75
l-49 48 0 495 0 496 76 76 75 76 -59 21 c-32 12 -63 22 -68 22 -5 0 -33 -24
-62 -53 l-52 -53 0 -298 c0 -283 1 -299 20 -323 11 -14 20 -34 20 -45 0 -25
-44 -68 -70 -68 -27 0 -70 43 -70 71 0 11 14 34 30 49 l30 28 0 303 0 303 52
53 c36 37 47 54 37 57 -8 3 -34 12 -59 20 l-45 15 -47 -46 -48 -47 0 -390 0
-390 95 -97 c84 -85 95 -100 95 -132 0 -60 -68 -89 -110 -47 -24 24 -26 67 -3
92 16 18 13 22 -55 91 l-72 72 0 406 0 405 45 44 c25 24 45 47 45 50 0 4 -23
12 -50 19 -85 22 -80 53 -80 -481 l0 -469 50 -53 50 -53 0 -109 0 -109 50 -27
c28 -16 59 -28 69 -28 23 0 61 -45 61 -71 0 -31 -36 -59 -75 -59 -42 0 -70 35
-62 78 5 25 1 31 -44 55 l-49 28 0 117 0 118 -45 44 -45 45 2 502 c3 495 3
502 -17 507 -11 3 -26 6 -32 6 -10 0 -13 -107 -13 -502 l0 -503 35 -58 35 -58
0 -137 0 -137 123 -122 c67 -66 132 -124 143 -127 32 -10 48 -56 33 -90 -35
-76 -152 -25 -122 54 10 27 6 32 -108 146 l-119 119 0 143 0 144 -35 59 -35
60 0 515 c0 336 -3 514 -10 514 -7 0 -10 -229 -10 -666 l0 -667 -45 -48 c-27
-29 -43 -54 -39 -63 6 -15 -12 -56 -30 -68 -24 -16 -75 -8 -90 14 -35 50 -4
108 57 108 24 0 42 9 65 33 l32 33 0 666 c0 705 2 678 -41 678 -8 0 -7 -848 1
-950 2 -27 -31 -60 -62 -60 -10 0 -30 12 -45 26 -20 20 -24 30 -17 52 4 15 9
235 11 488 l3 462 -22 6 c-13 3 -26 6 -30 6 -5 0 -8 -244 -8 -543 l0 -543 48
-47 c32 -31 56 -47 73 -47 54 0 79 -70 39 -110 -41 -41 -110 -13 -110 43 0 27
-11 44 -60 92 l-60 59 0 552 0 552 -22 6 c-28 7 -38 7 -38 1z m295 -2000 c14
-13 25 -33 25 -45 0 -11 -11 -32 -25 -45 -13 -14 -33 -25 -45 -25 -11 0 -32
11 -45 25 -14 13 -25 34 -25 45 0 12 11 32 25 45 13 14 34 25 45 25 12 0 32
-11 45 -25z m280 0 c14 -13 25 -33 25 -45 0 -11 -11 -32 -25 -45 -13 -14 -33
-25 -45 -25 -11 0 -32 11 -45 25 -14 13 -25 34 -25 45 0 12 11 32 25 45 13 14
34 25 45 25 12 0 32 -11 45 -25z m272 2 c24 -24 25 -62 3 -90 -26 -33 -65 -35
-97 -5 -30 28 -29 63 3 94 19 20 31 24 52 19 15 -3 32 -12 39 -18z m278 -2
c14 -13 25 -33 25 -45 0 -11 -11 -32 -25 -45 -13 -14 -33 -25 -45 -25 -11 0
-32 11 -45 25 -14 13 -25 34 -25 45 0 12 11 32 25 45 13 14 34 25 45 25 12 0
32 -11 45 -25z"/>
<path d="M10320 7165 l-245 -245 -559 0 -560 0 -28 27 c-22 21 -28 36 -28 70
0 37 -4 44 -30 58 -17 9 -55 15 -93 15 -56 0 -66 -3 -90 -28 -25 -26 -27 -34
-27 -118 l0 -89 -105 -105 -105 -105 0 -395 0 -395 198 -198 197 -197 53 0
c29 0 61 -6 72 -12 15 -10 22 -10 32 0 9 9 7 17 -12 37 -20 21 -33 25 -79 25
l-56 0 -188 188 -187 187 0 310 0 311 59 58 c56 56 58 59 54 101 -4 34 -1 47
16 64 46 46 121 13 121 -53 0 -44 -41 -80 -81 -72 -21 4 -35 -5 -82 -52 l-57
-58 0 -299 0 -300 177 -177 178 -178 57 0 c50 0 62 -4 93 -31 52 -46 56 -26 5
26 -36 37 -51 45 -80 45 -32 0 -49 14 -208 173 l-172 172 0 255 0 255 188 188
187 187 687 0 686 0 50 98 c50 97 132 277 132 290 0 3 -82 -76 -183 -176
l-183 -182 -604 0 -604 0 -43 42 c-33 33 -46 39 -55 30 -22 -22 -75 -14 -98
15 -38 49 -4 123 57 123 33 0 73 -42 73 -78 0 -19 12 -39 38 -65 l38 -37 590
0 590 1 212 212 c194 194 213 217 231 270 11 31 19 57 18 57 -1 0 -112 -110
-247 -245z"/>
<path d="M8772 6597 l-182 -182 0 -240 0 -240 163 -163 c147 -147 165 -162
197 -162 28 0 44 -9 86 -51 38 -38 57 -50 70 -45 15 6 9 15 -36 61 -50 51 -58
55 -100 55 -43 0 -49 4 -113 68 l-67 68 0 159 c0 142 2 164 20 193 18 29 20
50 20 205 l0 173 94 92 93 92 474 0 474 0 70 -70 c88 -87 96 -86 164 21 l51
79 -623 0 -622 0 -138 -138 -137 -137 0 -72 c0 -66 2 -74 30 -101 38 -38 38
-66 1 -103 -36 -35 -64 -37 -96 -4 -35 34 -33 79 5 115 28 27 30 32 30 107 l0
78 143 143 142 142 640 0 c629 0 640 0 653 20 12 20 10 20 -656 20 l-667 0
-183 -183z"/>
<path d="M8947 6562 l-87 -87 0 -167 c0 -150 -2 -171 -20 -200 -18 -29 -20
-51 -20 -183 l0 -151 58 -57 c54 -53 61 -57 106 -57 44 0 52 -4 106 -56 52
-49 61 -54 80 -44 27 14 26 15 -37 84 l-52 56 -68 0 -69 0 -47 48 -47 48 0
139 c0 137 0 139 26 166 25 26 27 34 25 108 l-2 80 48 30 48 31 240 0 241 0
37 -38 c31 -32 43 -38 68 -34 67 10 106 -79 56 -126 -58 -54 -153 11 -116 79
9 18 6 26 -17 50 l-28 29 -243 0 c-301 0 -293 3 -293 -108 0 -67 -3 -79 -24
-101 -24 -25 -25 -33 -27 -159 l-1 -134 38 -39 c37 -38 40 -39 104 -39 l65 1
61 -68 62 -67 41 29 c58 40 59 45 4 45 -46 0 -52 3 -108 60 -57 58 -61 60
-111 60 -48 0 -55 3 -88 40 -35 39 -36 42 -36 123 l0 83 54 53 c51 51 54 56
40 75 -21 30 -17 64 11 91 44 45 109 22 121 -42 5 -26 1 -37 -19 -57 -15 -14
-37 -26 -49 -26 -15 0 -43 -19 -76 -53 l-52 -53 0 -70 c0 -66 2 -72 33 -102
27 -26 41 -32 78 -32 41 0 49 -5 99 -55 l54 -55 83 0 c45 0 85 5 88 10 4 6
-26 10 -82 10 l-89 0 -64 65 c-39 39 -73 65 -85 65 -29 0 -65 41 -65 74 0 33
41 76 72 76 59 0 95 -68 63 -117 -17 -25 -17 -26 36 -79 l54 -55 110 3 c90 2
110 6 110 18 0 12 -17 16 -86 18 l-85 3 -46 47 -46 47 -6 102 -6 102 46 32
c37 27 44 37 39 56 -6 27 17 78 40 87 52 20 105 -16 105 -70 0 -47 -39 -78
-87 -71 -32 5 -44 2 -72 -22 l-34 -28 2 -89 c2 -88 3 -90 39 -126 l36 -38 86
0 c54 0 91 -5 98 -12 9 -9 15 -9 24 0 10 10 2 22 -36 60 -33 33 -50 43 -53 33
-11 -29 -44 -51 -76 -51 -57 0 -90 57 -63 108 27 52 73 56 118 12 16 -16 35
-30 42 -30 7 0 34 -23 60 -50 26 -28 52 -48 57 -44 7 4 5 12 -4 22 -25 28 -29
59 -13 90 25 48 66 55 111 20 l28 -22 88 94 88 95 -147 148 -147 147 -82 0
c-66 0 -83 -3 -83 -14 0 -8 -10 -22 -22 -30 -75 -53 -161 50 -95 112 31 29 72
28 101 -3 21 -23 31 -25 102 -25 l79 0 156 -156 156 -156 43 49 c77 87 78 89
41 127 -18 19 -47 37 -64 40 -46 9 -67 33 -67 76 0 45 27 73 70 73 42 0 70
-28 70 -73 0 -20 -5 -41 -12 -48 -10 -10 -6 -19 19 -44 27 -27 34 -30 48 -18
14 12 14 15 -5 35 -15 16 -20 35 -20 76 0 49 -4 59 -33 87 l-33 32 -359 0
-359 0 -42 -41 c-37 -36 -42 -46 -37 -74 6 -40 -10 -73 -44 -86 -35 -13 -77 4
-92 37 -16 36 -14 50 12 80 18 21 32 27 59 26 29 -1 42 6 78 43 l44 45 381 0
381 0 37 -38 c34 -34 37 -43 37 -94 0 -97 52 -105 63 -10 6 47 5 47 -56 110
l-61 62 -461 0 -460 0 -88 -88z"/>
</g>
</svg>
